<?xml version="1.0" encoding="UTF-8" standalone="no"?>
<!DOCTYPE svg PUBLIC "-//W3C//DTD SVG 1.1//EN"
 "http://www.w3.org/Graphics/SVG/1.1/DTD/svg11.dtd">
<!-- Generated by graphviz version 2.46.0 (20210118.1747)
 -->
<!-- Title: Sparce_Matrix Pages: 1 -->
<svg width="1250pt" height="764pt"
 viewBox="0.00 0.00 1250.00 764.00" xmlns="http://www.w3.org/2000/svg" xmlns:xlink="http://www.w3.org/1999/xlink">
<g id="graph0" class="graph" transform="scale(1 1) rotate(0) translate(4 760)">
<title>Sparce_Matrix</title>
<polygon fill="white" stroke="transparent" points="-4,4 -4,-760 1246,-760 1246,4 -4,4"/>
<!-- Mt -->
<g id="node1" class="node">
<title>Mt</title>
<polygon fill="#ff3030" stroke="black" points="108,-756 0,-756 0,-720 108,-720 108,-756"/>
<text text-anchor="middle" x="54" y="-734.3" font-family="Times New Roman,serif" font-size="14.00">Matriz</text>
</g>
<!-- C1 -->
<g id="node2" class="node">
<title>C1</title>
<polygon fill="#ffe4c4" stroke="black" points="234,-756 126,-756 126,-720 234,-720 234,-756"/>
<text text-anchor="middle" x="180" y="-734.3" font-family="Times New Roman,serif" font-size="14.00">Column 1</text>
</g>
<!-- Mt&#45;&gt;C1 -->
<g id="edge1" class="edge">
<title>Mt&#45;&gt;C1</title>
<path fill="none" stroke="black" d="M108.14,-738C110.63,-738 113.11,-738 115.6,-738"/>
<polygon fill="black" stroke="black" points="115.82,-741.5 125.82,-738 115.82,-734.5 115.82,-741.5"/>
</g>
<!-- F0 -->
<g id="node11" class="node">
<title>F0</title>
<polygon fill="lightskyblue" stroke="black" points="108,-684 0,-684 0,-648 108,-648 108,-684"/>
<text text-anchor="middle" x="54" y="-662.3" font-family="Times New Roman,serif" font-size="14.00">Row 0</text>
</g>
<!-- Mt&#45;&gt;F0 -->
<g id="edge18" class="edge">
<title>Mt&#45;&gt;F0</title>
<path fill="none" stroke="black" d="M54,-719.7C54,-711.98 54,-702.71 54,-694.11"/>
<polygon fill="black" stroke="black" points="57.5,-694.1 54,-684.1 50.5,-694.1 57.5,-694.1"/>
</g>
<!-- C2 -->
<g id="node3" class="node">
<title>C2</title>
<polygon fill="#ffe4c4" stroke="black" points="360,-756 252,-756 252,-720 360,-720 360,-756"/>
<text text-anchor="middle" x="306" y="-734.3" font-family="Times New Roman,serif" font-size="14.00">Column 2</text>
</g>
<!-- C1&#45;&gt;C2 -->
<g id="edge2" class="edge">
<title>C1&#45;&gt;C2</title>
<path fill="none" stroke="black" d="M234.14,-724.77C236.63,-724.62 239.11,-724.53 241.6,-724.51"/>
<polygon fill="black" stroke="black" points="241.74,-728.01 251.82,-724.76 241.92,-721.01 241.74,-728.01"/>
</g>
<!-- N01 -->
<g id="node21" class="node">
<title>N01</title>
<polygon fill="none" stroke="black" points="234,-684 126,-684 126,-648 234,-648 234,-684"/>
<text text-anchor="middle" x="180" y="-662.3" font-family="Times New Roman,serif" font-size="14.00">2</text>
</g>
<!-- C1&#45;&gt;N01 -->
<g id="edge57" class="edge">
<title>C1&#45;&gt;N01</title>
<path fill="none" stroke="black" d="M174.08,-719.7C173.29,-711.98 173.06,-702.71 173.4,-694.11"/>
<polygon fill="black" stroke="black" points="176.9,-694.32 174.1,-684.1 169.92,-693.84 176.9,-694.32"/>
</g>
<!-- C2&#45;&gt;C1 -->
<g id="edge3" class="edge">
<title>C2&#45;&gt;C1</title>
<path fill="none" stroke="black" d="M251.82,-751.24C249.34,-751.38 246.85,-751.47 244.36,-751.49"/>
<polygon fill="black" stroke="black" points="244.23,-747.99 234.14,-751.23 244.05,-754.99 244.23,-747.99"/>
</g>
<!-- C3 -->
<g id="node4" class="node">
<title>C3</title>
<polygon fill="#ffe4c4" stroke="black" points="486,-756 378,-756 378,-720 486,-720 486,-756"/>
<text text-anchor="middle" x="432" y="-734.3" font-family="Times New Roman,serif" font-size="14.00">Column 3</text>
</g>
<!-- C2&#45;&gt;C3 -->
<g id="edge4" class="edge">
<title>C2&#45;&gt;C3</title>
<path fill="none" stroke="black" d="M360.14,-724.77C362.63,-724.62 365.11,-724.53 367.6,-724.51"/>
<polygon fill="black" stroke="black" points="367.74,-728.01 377.82,-724.76 367.92,-721.01 367.74,-728.01"/>
</g>
<!-- N22 -->
<g id="node24" class="node">
<title>N22</title>
<polygon fill="none" stroke="black" points="360,-540 252,-540 252,-504 360,-504 360,-540"/>
<text text-anchor="middle" x="306" y="-518.3" font-family="Times New Roman,serif" font-size="14.00">2</text>
</g>
<!-- C2&#45;&gt;N22 -->
<g id="edge61" class="edge">
<title>C2&#45;&gt;N22</title>
<path fill="none" stroke="black" d="M302.12,-719.85C298.59,-682.83 298.32,-595.18 301.31,-550.39"/>
<polygon fill="black" stroke="black" points="304.81,-550.48 302.11,-540.23 297.83,-549.92 304.81,-550.48"/>
</g>
<!-- C3&#45;&gt;C2 -->
<g id="edge5" class="edge">
<title>C3&#45;&gt;C2</title>
<path fill="none" stroke="black" d="M377.82,-751.24C375.34,-751.38 372.85,-751.47 370.36,-751.49"/>
<polygon fill="black" stroke="black" points="370.23,-747.99 360.14,-751.23 370.05,-754.99 370.23,-747.99"/>
</g>
<!-- C4 -->
<g id="node5" class="node">
<title>C4</title>
<polygon fill="#ffe4c4" stroke="black" points="612,-756 504,-756 504,-720 612,-720 612,-756"/>
<text text-anchor="middle" x="558" y="-734.3" font-family="Times New Roman,serif" font-size="14.00">Column 4</text>
</g>
<!-- C3&#45;&gt;C4 -->
<g id="edge6" class="edge">
<title>C3&#45;&gt;C4</title>
<path fill="none" stroke="black" d="M486.14,-724.77C488.63,-724.62 491.11,-724.53 493.6,-724.51"/>
<polygon fill="black" stroke="black" points="493.74,-728.01 503.82,-724.76 493.92,-721.01 493.74,-728.01"/>
</g>
<!-- N03 -->
<g id="node22" class="node">
<title>N03</title>
<polygon fill="none" stroke="black" points="486,-684 378,-684 378,-648 486,-648 486,-684"/>
<text text-anchor="middle" x="432" y="-662.3" font-family="Times New Roman,serif" font-size="14.00">22</text>
</g>
<!-- C3&#45;&gt;N03 -->
<g id="edge59" class="edge">
<title>C3&#45;&gt;N03</title>
<path fill="none" stroke="black" d="M426.08,-719.7C425.29,-711.98 425.06,-702.71 425.4,-694.11"/>
<polygon fill="black" stroke="black" points="428.9,-694.32 426.1,-684.1 421.92,-693.84 428.9,-694.32"/>
</g>
<!-- C4&#45;&gt;C3 -->
<g id="edge7" class="edge">
<title>C4&#45;&gt;C3</title>
<path fill="none" stroke="black" d="M503.82,-751.24C501.34,-751.38 498.85,-751.47 496.36,-751.49"/>
<polygon fill="black" stroke="black" points="496.23,-747.99 486.14,-751.23 496.05,-754.99 496.23,-747.99"/>
</g>
<!-- C5 -->
<g id="node6" class="node">
<title>C5</title>
<polygon fill="#ffe4c4" stroke="black" points="738,-756 630,-756 630,-720 738,-720 738,-756"/>
<text text-anchor="middle" x="684" y="-734.3" font-family="Times New Roman,serif" font-size="14.00">Column 5</text>
</g>
<!-- C4&#45;&gt;C5 -->
<g id="edge8" class="edge">
<title>C4&#45;&gt;C5</title>
<path fill="none" stroke="black" d="M612.14,-724.77C614.63,-724.62 617.11,-724.53 619.6,-724.51"/>
<polygon fill="black" stroke="black" points="619.74,-728.01 629.82,-724.76 619.92,-721.01 619.74,-728.01"/>
</g>
<!-- N44 -->
<g id="node27" class="node">
<title>N44</title>
<polygon fill="none" stroke="black" points="612,-396 504,-396 504,-360 612,-360 612,-396"/>
<text text-anchor="middle" x="558" y="-374.3" font-family="Times New Roman,serif" font-size="14.00">0</text>
</g>
<!-- C4&#45;&gt;N44 -->
<g id="edge63" class="edge">
<title>C4&#45;&gt;N44</title>
<path fill="none" stroke="black" d="M552.29,-719.95C549,-693.29 549,-640.11 549,-595 549,-595 549,-595 549,-521 549,-481 549,-434.65 551.29,-406.08"/>
<polygon fill="black" stroke="black" points="554.78,-406.35 552.29,-396.05 547.82,-405.65 554.78,-406.35"/>
</g>
<!-- C5&#45;&gt;C4 -->
<g id="edge9" class="edge">
<title>C5&#45;&gt;C4</title>
<path fill="none" stroke="black" d="M629.82,-751.24C627.34,-751.38 624.85,-751.47 622.36,-751.49"/>
<polygon fill="black" stroke="black" points="622.23,-747.99 612.14,-751.23 622.05,-754.99 622.23,-747.99"/>
</g>
<!-- C6 -->
<g id="node7" class="node">
<title>C6</title>
<polygon fill="#ffe4c4" stroke="black" points="864,-756 756,-756 756,-720 864,-720 864,-756"/>
<text text-anchor="middle" x="810" y="-734.3" font-family="Times New Roman,serif" font-size="14.00">Column 6</text>
</g>
<!-- C5&#45;&gt;C6 -->
<g id="edge10" class="edge">
<title>C5&#45;&gt;C6</title>
<path fill="none" stroke="black" d="M738.14,-724.77C740.63,-724.62 743.11,-724.53 745.6,-724.51"/>
<polygon fill="black" stroke="black" points="745.74,-728.01 755.82,-724.76 745.92,-721.01 745.74,-728.01"/>
</g>
<!-- N55 -->
<g id="node28" class="node">
<title>N55</title>
<polygon fill="none" stroke="black" points="738,-324 630,-324 630,-288 738,-288 738,-324"/>
<text text-anchor="middle" x="684" y="-302.3" font-family="Times New Roman,serif" font-size="14.00">3</text>
</g>
<!-- C5&#45;&gt;N55 -->
<g id="edge65" class="edge">
<title>C5&#45;&gt;N55</title>
<path fill="none" stroke="black" d="M678.29,-719.95C675,-693.29 675,-640.11 675,-595 675,-595 675,-595 675,-449 675,-409 675,-362.65 677.29,-334.08"/>
<polygon fill="black" stroke="black" points="680.78,-334.35 678.29,-324.05 673.82,-333.65 680.78,-334.35"/>
</g>
<!-- C6&#45;&gt;C5 -->
<g id="edge11" class="edge">
<title>C6&#45;&gt;C5</title>
<path fill="none" stroke="black" d="M755.82,-751.24C753.34,-751.38 750.85,-751.47 748.36,-751.49"/>
<polygon fill="black" stroke="black" points="748.23,-747.99 738.14,-751.23 748.05,-754.99 748.23,-747.99"/>
</g>
<!-- C7 -->
<g id="node8" class="node">
<title>C7</title>
<polygon fill="#ffe4c4" stroke="black" points="990,-756 882,-756 882,-720 990,-720 990,-756"/>
<text text-anchor="middle" x="936" y="-734.3" font-family="Times New Roman,serif" font-size="14.00">Column 7</text>
</g>
<!-- C6&#45;&gt;C7 -->
<g id="edge12" class="edge">
<title>C6&#45;&gt;C7</title>
<path fill="none" stroke="black" d="M864.14,-724.77C866.63,-724.62 869.11,-724.53 871.6,-724.51"/>
<polygon fill="black" stroke="black" points="871.74,-728.01 881.82,-724.76 871.92,-721.01 871.74,-728.01"/>
</g>
<!-- N66 -->
<g id="node29" class="node">
<title>N66</title>
<polygon fill="none" stroke="black" points="864,-252 756,-252 756,-216 864,-216 864,-252"/>
<text text-anchor="middle" x="810" y="-230.3" font-family="Times New Roman,serif" font-size="14.00">9</text>
</g>
<!-- C6&#45;&gt;N66 -->
<g id="edge67" class="edge">
<title>C6&#45;&gt;N66</title>
<path fill="none" stroke="black" d="M804.29,-719.95C801,-693.29 801,-640.11 801,-595 801,-595 801,-595 801,-377 801,-337 801,-290.65 803.29,-262.08"/>
<polygon fill="black" stroke="black" points="806.78,-262.35 804.29,-252.05 799.82,-261.65 806.78,-262.35"/>
</g>
<!-- C7&#45;&gt;C6 -->
<g id="edge13" class="edge">
<title>C7&#45;&gt;C6</title>
<path fill="none" stroke="black" d="M881.82,-751.24C879.34,-751.38 876.85,-751.47 874.36,-751.49"/>
<polygon fill="black" stroke="black" points="874.23,-747.99 864.14,-751.23 874.05,-754.99 874.23,-747.99"/>
</g>
<!-- C8 -->
<g id="node9" class="node">
<title>C8</title>
<polygon fill="#ffe4c4" stroke="black" points="1116,-756 1008,-756 1008,-720 1116,-720 1116,-756"/>
<text text-anchor="middle" x="1062" y="-734.3" font-family="Times New Roman,serif" font-size="14.00">Column 8</text>
</g>
<!-- C7&#45;&gt;C8 -->
<g id="edge14" class="edge">
<title>C7&#45;&gt;C8</title>
<path fill="none" stroke="black" d="M990.14,-724.77C992.63,-724.62 995.11,-724.53 997.6,-724.51"/>
<polygon fill="black" stroke="black" points="997.74,-728.01 1007.82,-724.76 997.92,-721.01 997.74,-728.01"/>
</g>
<!-- N77 -->
<g id="node30" class="node">
<title>N77</title>
<polygon fill="none" stroke="black" points="990,-180 882,-180 882,-144 990,-144 990,-180"/>
<text text-anchor="middle" x="936" y="-158.3" font-family="Times New Roman,serif" font-size="14.00">7</text>
</g>
<!-- C7&#45;&gt;N77 -->
<g id="edge69" class="edge">
<title>C7&#45;&gt;N77</title>
<path fill="none" stroke="black" d="M930.29,-719.95C927,-693.29 927,-640.11 927,-595 927,-595 927,-595 927,-305 927,-265 927,-218.65 929.29,-190.08"/>
<polygon fill="black" stroke="black" points="932.78,-190.35 930.29,-180.05 925.82,-189.65 932.78,-190.35"/>
</g>
<!-- C8&#45;&gt;C7 -->
<g id="edge15" class="edge">
<title>C8&#45;&gt;C7</title>
<path fill="none" stroke="black" d="M1007.82,-751.24C1005.34,-751.38 1002.85,-751.47 1000.36,-751.49"/>
<polygon fill="black" stroke="black" points="1000.23,-747.99 990.14,-751.23 1000.05,-754.99 1000.23,-747.99"/>
</g>
<!-- C10 -->
<g id="node10" class="node">
<title>C10</title>
<polygon fill="#ffe4c4" stroke="black" points="1242,-756 1134,-756 1134,-720 1242,-720 1242,-756"/>
<text text-anchor="middle" x="1188" y="-734.3" font-family="Times New Roman,serif" font-size="14.00">Column 10</text>
</g>
<!-- C8&#45;&gt;C10 -->
<g id="edge16" class="edge">
<title>C8&#45;&gt;C10</title>
<path fill="none" stroke="black" d="M1116.14,-724.77C1118.63,-724.62 1121.11,-724.53 1123.6,-724.51"/>
<polygon fill="black" stroke="black" points="1123.74,-728.01 1133.82,-724.76 1123.92,-721.01 1123.74,-728.01"/>
</g>
<!-- N88 -->
<g id="node31" class="node">
<title>N88</title>
<polygon fill="none" stroke="black" points="1116,-108 1008,-108 1008,-72 1116,-72 1116,-108"/>
<text text-anchor="middle" x="1062" y="-86.3" font-family="Times New Roman,serif" font-size="14.00">5</text>
</g>
<!-- C8&#45;&gt;N88 -->
<g id="edge71" class="edge">
<title>C8&#45;&gt;N88</title>
<path fill="none" stroke="black" d="M1056.29,-719.95C1053,-693.29 1053,-640.11 1053,-595 1053,-595 1053,-595 1053,-233 1053,-193 1053,-146.65 1055.29,-118.08"/>
<polygon fill="black" stroke="black" points="1058.78,-118.35 1056.29,-108.05 1051.82,-117.65 1058.78,-118.35"/>
</g>
<!-- C10&#45;&gt;C8 -->
<g id="edge17" class="edge">
<title>C10&#45;&gt;C8</title>
<path fill="none" stroke="black" d="M1133.82,-751.24C1131.34,-751.38 1128.85,-751.47 1126.36,-751.49"/>
<polygon fill="black" stroke="black" points="1126.23,-747.99 1116.14,-751.23 1126.05,-754.99 1126.23,-747.99"/>
</g>
<!-- N1010 -->
<g id="node32" class="node">
<title>N1010</title>
<polygon fill="none" stroke="black" points="1242,-36 1134,-36 1134,0 1242,0 1242,-36"/>
<text text-anchor="middle" x="1188" y="-14.3" font-family="Times New Roman,serif" font-size="14.00">10</text>
</g>
<!-- C10&#45;&gt;N1010 -->
<g id="edge73" class="edge">
<title>C10&#45;&gt;N1010</title>
<path fill="none" stroke="black" d="M1182.29,-719.95C1179,-693.29 1179,-640.11 1179,-595 1179,-595 1179,-595 1179,-161 1179,-121 1179,-74.65 1181.29,-46.08"/>
<polygon fill="black" stroke="black" points="1184.78,-46.35 1182.29,-36.05 1177.82,-45.65 1184.78,-46.35"/>
</g>
<!-- F1 -->
<g id="node12" class="node">
<title>F1</title>
<polygon fill="lightskyblue" stroke="black" points="108,-612 0,-612 0,-576 108,-576 108,-612"/>
<text text-anchor="middle" x="54" y="-590.3" font-family="Times New Roman,serif" font-size="14.00">Row 1</text>
</g>
<!-- F0&#45;&gt;F1 -->
<g id="edge19" class="edge">
<title>F0&#45;&gt;F1</title>
<path fill="none" stroke="black" d="M48.08,-647.7C47.29,-639.98 47.06,-630.71 47.4,-622.11"/>
<polygon fill="black" stroke="black" points="50.9,-622.32 48.1,-612.1 43.92,-621.84 50.9,-622.32"/>
</g>
<!-- F0&#45;&gt;N01 -->
<g id="edge37" class="edge">
<title>F0&#45;&gt;N01</title>
<path fill="none" stroke="black" d="M108.14,-652.77C110.63,-652.62 113.11,-652.53 115.6,-652.51"/>
<polygon fill="black" stroke="black" points="115.74,-656.01 125.82,-652.76 115.92,-649.01 115.74,-656.01"/>
</g>
<!-- F1&#45;&gt;F0 -->
<g id="edge20" class="edge">
<title>F1&#45;&gt;F0</title>
<path fill="none" stroke="black" d="M59.9,-612.1C60.7,-619.79 60.94,-629.05 60.6,-637.67"/>
<polygon fill="black" stroke="black" points="57.11,-637.48 59.92,-647.7 64.09,-637.96 57.11,-637.48"/>
</g>
<!-- F2 -->
<g id="node13" class="node">
<title>F2</title>
<polygon fill="lightskyblue" stroke="black" points="108,-540 0,-540 0,-504 108,-504 108,-540"/>
<text text-anchor="middle" x="54" y="-518.3" font-family="Times New Roman,serif" font-size="14.00">Row 2</text>
</g>
<!-- F1&#45;&gt;F2 -->
<g id="edge21" class="edge">
<title>F1&#45;&gt;F2</title>
<path fill="none" stroke="black" d="M48.08,-575.7C47.29,-567.98 47.06,-558.71 47.4,-550.11"/>
<polygon fill="black" stroke="black" points="50.9,-550.32 48.1,-540.1 43.92,-549.84 50.9,-550.32"/>
</g>
<!-- N11 -->
<g id="node23" class="node">
<title>N11</title>
<polygon fill="none" stroke="black" points="234,-612 126,-612 126,-576 234,-576 234,-612"/>
<text text-anchor="middle" x="180" y="-590.3" font-family="Times New Roman,serif" font-size="14.00">0</text>
</g>
<!-- F1&#45;&gt;N11 -->
<g id="edge39" class="edge">
<title>F1&#45;&gt;N11</title>
<path fill="none" stroke="black" d="M108.14,-580.77C110.63,-580.62 113.11,-580.53 115.6,-580.51"/>
<polygon fill="black" stroke="black" points="115.74,-584.01 125.82,-580.76 115.92,-577.01 115.74,-584.01"/>
</g>
<!-- F2&#45;&gt;F1 -->
<g id="edge22" class="edge">
<title>F2&#45;&gt;F1</title>
<path fill="none" stroke="black" d="M59.9,-540.1C60.7,-547.79 60.94,-557.05 60.6,-565.67"/>
<polygon fill="black" stroke="black" points="57.11,-565.48 59.92,-575.7 64.09,-565.96 57.11,-565.48"/>
</g>
<!-- F3 -->
<g id="node14" class="node">
<title>F3</title>
<polygon fill="lightskyblue" stroke="black" points="108,-468 0,-468 0,-432 108,-432 108,-468"/>
<text text-anchor="middle" x="54" y="-446.3" font-family="Times New Roman,serif" font-size="14.00">Row 3</text>
</g>
<!-- F2&#45;&gt;F3 -->
<g id="edge23" class="edge">
<title>F2&#45;&gt;F3</title>
<path fill="none" stroke="black" d="M48.08,-503.7C47.29,-495.98 47.06,-486.71 47.4,-478.11"/>
<polygon fill="black" stroke="black" points="50.9,-478.32 48.1,-468.1 43.92,-477.84 50.9,-478.32"/>
</g>
<!-- F2&#45;&gt;N22 -->
<g id="edge41" class="edge">
<title>F2&#45;&gt;N22</title>
<path fill="none" stroke="black" d="M108.14,-512.89C152.69,-507.45 197.24,-507.07 241.79,-511.75"/>
<polygon fill="black" stroke="black" points="241.57,-515.24 251.9,-512.9 242.36,-508.29 241.57,-515.24"/>
</g>
<!-- F3&#45;&gt;F2 -->
<g id="edge24" class="edge">
<title>F3&#45;&gt;F2</title>
<path fill="none" stroke="black" d="M59.9,-468.1C60.7,-475.79 60.94,-485.05 60.6,-493.67"/>
<polygon fill="black" stroke="black" points="57.11,-493.48 59.92,-503.7 64.09,-493.96 57.11,-493.48"/>
</g>
<!-- F4 -->
<g id="node15" class="node">
<title>F4</title>
<polygon fill="lightskyblue" stroke="black" points="108,-396 0,-396 0,-360 108,-360 108,-396"/>
<text text-anchor="middle" x="54" y="-374.3" font-family="Times New Roman,serif" font-size="14.00">Row 4</text>
</g>
<!-- F3&#45;&gt;F4 -->
<g id="edge25" class="edge">
<title>F3&#45;&gt;F4</title>
<path fill="none" stroke="black" d="M48.08,-431.7C47.29,-423.98 47.06,-414.71 47.4,-406.11"/>
<polygon fill="black" stroke="black" points="50.9,-406.32 48.1,-396.1 43.92,-405.84 50.9,-406.32"/>
</g>
<!-- N32 -->
<g id="node25" class="node">
<title>N32</title>
<polygon fill="none" stroke="black" points="360,-468 252,-468 252,-432 360,-432 360,-468"/>
<text text-anchor="middle" x="306" y="-446.3" font-family="Times New Roman,serif" font-size="14.00">278</text>
</g>
<!-- F3&#45;&gt;N32 -->
<g id="edge43" class="edge">
<title>F3&#45;&gt;N32</title>
<path fill="none" stroke="black" d="M108.14,-440.89C152.69,-435.45 197.24,-435.07 241.79,-439.75"/>
<polygon fill="black" stroke="black" points="241.57,-443.24 251.9,-440.9 242.36,-436.29 241.57,-443.24"/>
</g>
<!-- F4&#45;&gt;F3 -->
<g id="edge26" class="edge">
<title>F4&#45;&gt;F3</title>
<path fill="none" stroke="black" d="M59.9,-396.1C60.7,-403.79 60.94,-413.05 60.6,-421.67"/>
<polygon fill="black" stroke="black" points="57.11,-421.48 59.92,-431.7 64.09,-421.96 57.11,-421.48"/>
</g>
<!-- F5 -->
<g id="node16" class="node">
<title>F5</title>
<polygon fill="lightskyblue" stroke="black" points="108,-324 0,-324 0,-288 108,-288 108,-324"/>
<text text-anchor="middle" x="54" y="-302.3" font-family="Times New Roman,serif" font-size="14.00">Row 5</text>
</g>
<!-- F4&#45;&gt;F5 -->
<g id="edge27" class="edge">
<title>F4&#45;&gt;F5</title>
<path fill="none" stroke="black" d="M48.08,-359.7C47.29,-351.98 47.06,-342.71 47.4,-334.11"/>
<polygon fill="black" stroke="black" points="50.9,-334.32 48.1,-324.1 43.92,-333.84 50.9,-334.32"/>
</g>
<!-- F4&#45;&gt;N44 -->
<g id="edge45" class="edge">
<title>F4&#45;&gt;N44</title>
<path fill="none" stroke="black" d="M108.14,-372.82C236.73,-362 365.32,-361.73 493.91,-372.01"/>
<polygon fill="black" stroke="black" points="493.71,-375.5 503.96,-372.83 494.28,-368.53 493.71,-375.5"/>
</g>
<!-- F5&#45;&gt;F4 -->
<g id="edge28" class="edge">
<title>F5&#45;&gt;F4</title>
<path fill="none" stroke="black" d="M59.9,-324.1C60.7,-331.79 60.94,-341.05 60.6,-349.67"/>
<polygon fill="black" stroke="black" points="57.11,-349.48 59.92,-359.7 64.09,-349.96 57.11,-349.48"/>
</g>
<!-- F6 -->
<g id="node17" class="node">
<title>F6</title>
<polygon fill="lightskyblue" stroke="black" points="108,-252 0,-252 0,-216 108,-216 108,-252"/>
<text text-anchor="middle" x="54" y="-230.3" font-family="Times New Roman,serif" font-size="14.00">Row 6</text>
</g>
<!-- F5&#45;&gt;F6 -->
<g id="edge29" class="edge">
<title>F5&#45;&gt;F6</title>
<path fill="none" stroke="black" d="M48.08,-287.7C47.29,-279.98 47.06,-270.71 47.4,-262.11"/>
<polygon fill="black" stroke="black" points="50.9,-262.32 48.1,-252.1 43.92,-261.84 50.9,-262.32"/>
</g>
<!-- F5&#45;&gt;N55 -->
<g id="edge47" class="edge">
<title>F5&#45;&gt;N55</title>
<path fill="none" stroke="black" d="M108.14,-301.76C278.61,-289.66 449.08,-289.42 619.54,-301.04"/>
<polygon fill="black" stroke="black" points="619.51,-304.55 629.73,-301.75 620,-297.56 619.51,-304.55"/>
</g>
<!-- F6&#45;&gt;F5 -->
<g id="edge30" class="edge">
<title>F6&#45;&gt;F5</title>
<path fill="none" stroke="black" d="M59.9,-252.1C60.7,-259.79 60.94,-269.05 60.6,-277.67"/>
<polygon fill="black" stroke="black" points="57.11,-277.48 59.92,-287.7 64.09,-277.96 57.11,-277.48"/>
</g>
<!-- F7 -->
<g id="node18" class="node">
<title>F7</title>
<polygon fill="lightskyblue" stroke="black" points="108,-180 0,-180 0,-144 108,-144 108,-180"/>
<text text-anchor="middle" x="54" y="-158.3" font-family="Times New Roman,serif" font-size="14.00">Row 7</text>
</g>
<!-- F6&#45;&gt;F7 -->
<g id="edge31" class="edge">
<title>F6&#45;&gt;F7</title>
<path fill="none" stroke="black" d="M48.08,-215.7C47.29,-207.98 47.06,-198.71 47.4,-190.11"/>
<polygon fill="black" stroke="black" points="50.9,-190.32 48.1,-180.1 43.92,-189.84 50.9,-190.32"/>
</g>
<!-- F6&#45;&gt;N66 -->
<g id="edge49" class="edge">
<title>F6&#45;&gt;N66</title>
<path fill="none" stroke="black" d="M108.26,-230.4C320.76,-217.4 533.25,-217.2 745.74,-229.8"/>
<polygon fill="black" stroke="black" points="745.67,-233.3 755.86,-230.41 746.09,-226.31 745.67,-233.3"/>
</g>
<!-- F7&#45;&gt;F6 -->
<g id="edge32" class="edge">
<title>F7&#45;&gt;F6</title>
<path fill="none" stroke="black" d="M59.9,-180.1C60.7,-187.79 60.94,-197.05 60.6,-205.67"/>
<polygon fill="black" stroke="black" points="57.11,-205.48 59.92,-215.7 64.09,-205.96 57.11,-205.48"/>
</g>
<!-- F8 -->
<g id="node19" class="node">
<title>F8</title>
<polygon fill="lightskyblue" stroke="black" points="108,-108 0,-108 0,-72 108,-72 108,-108"/>
<text text-anchor="middle" x="54" y="-86.3" font-family="Times New Roman,serif" font-size="14.00">Row 8</text>
</g>
<!-- F7&#45;&gt;F8 -->
<g id="edge33" class="edge">
<title>F7&#45;&gt;F8</title>
<path fill="none" stroke="black" d="M48.08,-143.7C47.29,-135.98 47.06,-126.71 47.4,-118.11"/>
<polygon fill="black" stroke="black" points="50.9,-118.32 48.1,-108.1 43.92,-117.84 50.9,-118.32"/>
</g>
<!-- F7&#45;&gt;N77 -->
<g id="edge51" class="edge">
<title>F7&#45;&gt;N77</title>
<path fill="none" stroke="black" d="M108.26,-158.88C362.72,-145.22 617.18,-145.04 871.64,-158.35"/>
<polygon fill="black" stroke="black" points="871.67,-161.85 881.84,-158.89 872.04,-154.86 871.67,-161.85"/>
</g>
<!-- F8&#45;&gt;F7 -->
<g id="edge34" class="edge">
<title>F8&#45;&gt;F7</title>
<path fill="none" stroke="black" d="M59.9,-108.1C60.7,-115.79 60.94,-125.05 60.6,-133.67"/>
<polygon fill="black" stroke="black" points="57.11,-133.48 59.92,-143.7 64.09,-133.96 57.11,-133.48"/>
</g>
<!-- F10 -->
<g id="node20" class="node">
<title>F10</title>
<polygon fill="lightskyblue" stroke="black" points="108,-36 0,-36 0,0 108,0 108,-36"/>
<text text-anchor="middle" x="54" y="-14.3" font-family="Times New Roman,serif" font-size="14.00">Row 10</text>
</g>
<!-- F8&#45;&gt;F10 -->
<g id="edge35" class="edge">
<title>F8&#45;&gt;F10</title>
<path fill="none" stroke="black" d="M48.08,-71.7C47.29,-63.98 47.06,-54.71 47.4,-46.11"/>
<polygon fill="black" stroke="black" points="50.9,-46.32 48.1,-36.1 43.92,-45.84 50.9,-46.32"/>
</g>
<!-- F8&#45;&gt;N88 -->
<g id="edge53" class="edge">
<title>F8&#45;&gt;N88</title>
<path fill="none" stroke="black" d="M108.14,-87.26C404.72,-73.07 701.29,-72.92 997.87,-86.78"/>
<polygon fill="black" stroke="black" points="997.82,-90.28 1007.97,-87.26 998.15,-83.29 997.82,-90.28"/>
</g>
<!-- F10&#45;&gt;F8 -->
<g id="edge36" class="edge">
<title>F10&#45;&gt;F8</title>
<path fill="none" stroke="black" d="M59.9,-36.1C60.7,-43.79 60.94,-53.05 60.6,-61.67"/>
<polygon fill="black" stroke="black" points="57.11,-61.48 59.92,-71.7 64.09,-61.96 57.11,-61.48"/>
</g>
<!-- F10&#45;&gt;N1010 -->
<g id="edge55" class="edge">
<title>F10&#45;&gt;N1010</title>
<path fill="none" stroke="black" d="M108.26,-15.54C446.82,-0.96 785.38,-0.82 1123.94,-15.12"/>
<polygon fill="black" stroke="black" points="1123.82,-18.62 1133.96,-15.55 1124.12,-11.63 1123.82,-18.62"/>
</g>
<!-- N01&#45;&gt;C1 -->
<g id="edge58" class="edge">
<title>N01&#45;&gt;C1</title>
<path fill="none" stroke="black" d="M185.9,-684.1C186.7,-691.79 186.94,-701.05 186.6,-709.67"/>
<polygon fill="black" stroke="black" points="183.11,-709.48 185.92,-719.7 190.09,-709.96 183.11,-709.48"/>
</g>
<!-- N01&#45;&gt;F0 -->
<g id="edge38" class="edge">
<title>N01&#45;&gt;F0</title>
<path fill="none" stroke="black" d="M125.82,-679.24C123.34,-679.38 120.85,-679.47 118.36,-679.49"/>
<polygon fill="black" stroke="black" points="118.23,-675.99 108.14,-679.23 118.05,-682.99 118.23,-675.99"/>
</g>
<!-- N01&#45;&gt;N03 -->
<g id="edge76" class="edge">
<title>N01&#45;&gt;N03</title>
<path fill="none" stroke="black" d="M234.14,-656.89C278.69,-651.45 323.24,-651.07 367.79,-655.75"/>
<polygon fill="black" stroke="black" points="367.57,-659.24 377.9,-656.9 368.36,-652.29 367.57,-659.24"/>
</g>
<!-- N01&#45;&gt;N11 -->
<g id="edge75" class="edge">
<title>N01&#45;&gt;N11</title>
<path fill="none" stroke="black" d="M174.08,-647.7C173.29,-639.98 173.06,-630.71 173.4,-622.11"/>
<polygon fill="black" stroke="black" points="176.9,-622.32 174.1,-612.1 169.92,-621.84 176.9,-622.32"/>
</g>
<!-- N03&#45;&gt;C3 -->
<g id="edge60" class="edge">
<title>N03&#45;&gt;C3</title>
<path fill="none" stroke="black" d="M437.9,-684.1C438.7,-691.79 438.94,-701.05 438.6,-709.67"/>
<polygon fill="black" stroke="black" points="435.11,-709.48 437.92,-719.7 442.09,-709.96 435.11,-709.48"/>
</g>
<!-- N03&#45;&gt;N01 -->
<g id="edge78" class="edge">
<title>N03&#45;&gt;N01</title>
<path fill="none" stroke="black" d="M377.9,-675.1C333.35,-680.55 288.8,-680.94 244.25,-676.26"/>
<polygon fill="black" stroke="black" points="244.47,-672.76 234.14,-675.11 243.68,-679.72 244.47,-672.76"/>
</g>
<!-- N33 -->
<g id="node26" class="node">
<title>N33</title>
<polygon fill="none" stroke="black" points="486,-468 378,-468 378,-432 486,-432 486,-468"/>
<text text-anchor="middle" x="432" y="-446.3" font-family="Times New Roman,serif" font-size="14.00">0</text>
</g>
<!-- N03&#45;&gt;N33 -->
<g id="edge77" class="edge">
<title>N03&#45;&gt;N33</title>
<path fill="none" stroke="black" d="M428.12,-647.85C424.59,-610.83 424.32,-523.18 427.31,-478.39"/>
<polygon fill="black" stroke="black" points="430.81,-478.48 428.11,-468.23 423.83,-477.92 430.81,-478.48"/>
</g>
<!-- N11&#45;&gt;F1 -->
<g id="edge40" class="edge">
<title>N11&#45;&gt;F1</title>
<path fill="none" stroke="black" d="M125.82,-607.24C123.34,-607.38 120.85,-607.47 118.36,-607.49"/>
<polygon fill="black" stroke="black" points="118.23,-603.99 108.14,-607.23 118.05,-610.99 118.23,-603.99"/>
</g>
<!-- N11&#45;&gt;N01 -->
<g id="edge79" class="edge">
<title>N11&#45;&gt;N01</title>
<path fill="none" stroke="black" d="M185.9,-612.1C186.7,-619.79 186.94,-629.05 186.6,-637.67"/>
<polygon fill="black" stroke="black" points="183.11,-637.48 185.92,-647.7 190.09,-637.96 183.11,-637.48"/>
</g>
<!-- N22&#45;&gt;C2 -->
<g id="edge62" class="edge">
<title>N22&#45;&gt;C2</title>
<path fill="none" stroke="black" d="M309.89,-540.23C313.42,-577.32 313.68,-664.98 310.69,-709.71"/>
<polygon fill="black" stroke="black" points="307.18,-709.6 309.88,-719.85 314.16,-710.16 307.18,-709.6"/>
</g>
<!-- N22&#45;&gt;F2 -->
<g id="edge42" class="edge">
<title>N22&#45;&gt;F2</title>
<path fill="none" stroke="black" d="M251.9,-531.1C207.35,-536.55 162.8,-536.94 118.25,-532.26"/>
<polygon fill="black" stroke="black" points="118.47,-528.76 108.14,-531.11 117.68,-535.72 118.47,-528.76"/>
</g>
<!-- N22&#45;&gt;N32 -->
<g id="edge80" class="edge">
<title>N22&#45;&gt;N32</title>
<path fill="none" stroke="black" d="M300.08,-503.7C299.29,-495.98 299.06,-486.71 299.4,-478.11"/>
<polygon fill="black" stroke="black" points="302.9,-478.32 300.1,-468.1 295.92,-477.84 302.9,-478.32"/>
</g>
<!-- N32&#45;&gt;F3 -->
<g id="edge44" class="edge">
<title>N32&#45;&gt;F3</title>
<path fill="none" stroke="black" d="M251.9,-459.1C207.35,-464.55 162.8,-464.94 118.25,-460.26"/>
<polygon fill="black" stroke="black" points="118.47,-456.76 108.14,-459.11 117.68,-463.72 118.47,-456.76"/>
</g>
<!-- N32&#45;&gt;N22 -->
<g id="edge81" class="edge">
<title>N32&#45;&gt;N22</title>
<path fill="none" stroke="black" d="M311.9,-468.1C312.7,-475.79 312.94,-485.05 312.6,-493.67"/>
<polygon fill="black" stroke="black" points="309.11,-493.48 311.92,-503.7 316.09,-493.96 309.11,-493.48"/>
</g>
<!-- N32&#45;&gt;N33 -->
<g id="edge82" class="edge">
<title>N32&#45;&gt;N33</title>
<path fill="none" stroke="black" d="M360.14,-436.77C362.63,-436.62 365.11,-436.53 367.6,-436.51"/>
<polygon fill="black" stroke="black" points="367.74,-440.01 377.82,-436.76 367.92,-433.01 367.74,-440.01"/>
</g>
<!-- N33&#45;&gt;N03 -->
<g id="edge83" class="edge">
<title>N33&#45;&gt;N03</title>
<path fill="none" stroke="black" d="M435.89,-468.23C439.42,-505.32 439.68,-592.98 436.69,-637.71"/>
<polygon fill="black" stroke="black" points="433.18,-637.6 435.88,-647.85 440.16,-638.16 433.18,-637.6"/>
</g>
<!-- N33&#45;&gt;N32 -->
<g id="edge84" class="edge">
<title>N33&#45;&gt;N32</title>
<path fill="none" stroke="black" d="M377.82,-463.24C375.34,-463.38 372.85,-463.47 370.36,-463.49"/>
<polygon fill="black" stroke="black" points="370.23,-459.99 360.14,-463.23 370.05,-466.99 370.23,-459.99"/>
</g>
<!-- N44&#45;&gt;C4 -->
<g id="edge64" class="edge">
<title>N44&#45;&gt;C4</title>
<path fill="none" stroke="black" d="M563.71,-396.05C567,-422.71 567,-475.89 567,-521 567,-595 567,-595 567,-595 567,-635 567,-681.35 564.71,-709.92"/>
<polygon fill="black" stroke="black" points="561.22,-709.65 563.71,-719.95 568.18,-710.35 561.22,-709.65"/>
</g>
<!-- N44&#45;&gt;F4 -->
<g id="edge46" class="edge">
<title>N44&#45;&gt;F4</title>
<path fill="none" stroke="black" d="M503.96,-383.17C375.37,-393.99 246.78,-394.27 118.19,-384"/>
<polygon fill="black" stroke="black" points="118.39,-380.51 108.14,-383.18 117.82,-387.48 118.39,-380.51"/>
</g>
<!-- N55&#45;&gt;C5 -->
<g id="edge66" class="edge">
<title>N55&#45;&gt;C5</title>
<path fill="none" stroke="black" d="M689.71,-324.05C693,-350.71 693,-403.89 693,-449 693,-595 693,-595 693,-595 693,-635 693,-681.35 690.71,-709.92"/>
<polygon fill="black" stroke="black" points="687.22,-709.65 689.71,-719.95 694.18,-710.35 687.22,-709.65"/>
</g>
<!-- N55&#45;&gt;F5 -->
<g id="edge48" class="edge">
<title>N55&#45;&gt;F5</title>
<path fill="none" stroke="black" d="M629.73,-310.25C459.26,-322.35 288.8,-322.58 118.33,-310.95"/>
<polygon fill="black" stroke="black" points="118.36,-307.44 108.14,-310.24 117.87,-314.43 118.36,-307.44"/>
</g>
<!-- N66&#45;&gt;C6 -->
<g id="edge68" class="edge">
<title>N66&#45;&gt;C6</title>
<path fill="none" stroke="black" d="M815.71,-252.05C819,-278.71 819,-331.89 819,-377 819,-595 819,-595 819,-595 819,-635 819,-681.35 816.71,-709.92"/>
<polygon fill="black" stroke="black" points="813.22,-709.65 815.71,-719.95 820.18,-710.35 813.22,-709.65"/>
</g>
<!-- N66&#45;&gt;F6 -->
<g id="edge50" class="edge">
<title>N66&#45;&gt;F6</title>
<path fill="none" stroke="black" d="M755.86,-237.59C543.37,-250.59 330.88,-250.8 118.38,-238.21"/>
<polygon fill="black" stroke="black" points="118.46,-234.71 108.26,-237.6 118.04,-241.69 118.46,-234.71"/>
</g>
<!-- N77&#45;&gt;C7 -->
<g id="edge70" class="edge">
<title>N77&#45;&gt;C7</title>
<path fill="none" stroke="black" d="M941.71,-180.05C945,-206.71 945,-259.89 945,-305 945,-595 945,-595 945,-595 945,-635 945,-681.35 942.71,-709.92"/>
<polygon fill="black" stroke="black" points="939.22,-709.65 941.71,-719.95 946.18,-710.35 939.22,-709.65"/>
</g>
<!-- N77&#45;&gt;F7 -->
<g id="edge52" class="edge">
<title>N77&#45;&gt;F7</title>
<path fill="none" stroke="black" d="M881.84,-165.11C627.38,-178.78 372.92,-178.96 118.46,-165.66"/>
<polygon fill="black" stroke="black" points="118.43,-162.15 108.26,-165.12 118.06,-169.14 118.43,-162.15"/>
</g>
<!-- N88&#45;&gt;C8 -->
<g id="edge72" class="edge">
<title>N88&#45;&gt;C8</title>
<path fill="none" stroke="black" d="M1067.71,-108.05C1071,-134.71 1071,-187.89 1071,-233 1071,-595 1071,-595 1071,-595 1071,-635 1071,-681.35 1068.71,-709.92"/>
<polygon fill="black" stroke="black" points="1065.22,-709.65 1067.71,-719.95 1072.18,-710.35 1065.22,-709.65"/>
</g>
<!-- N88&#45;&gt;F8 -->
<g id="edge54" class="edge">
<title>N88&#45;&gt;F8</title>
<path fill="none" stroke="black" d="M1007.97,-92.74C711.4,-106.92 414.82,-107.09 118.25,-93.22"/>
<polygon fill="black" stroke="black" points="118.29,-89.72 108.14,-92.74 117.96,-96.71 118.29,-89.72"/>
</g>
<!-- N1010&#45;&gt;C10 -->
<g id="edge74" class="edge">
<title>N1010&#45;&gt;C10</title>
<path fill="none" stroke="black" d="M1193.71,-36.05C1197,-62.71 1197,-115.89 1197,-161 1197,-595 1197,-595 1197,-595 1197,-635 1197,-681.35 1194.71,-709.92"/>
<polygon fill="black" stroke="black" points="1191.22,-709.65 1193.71,-719.95 1198.18,-710.35 1191.22,-709.65"/>
</g>
<!-- N1010&#45;&gt;F10 -->
<g id="edge56" class="edge">
<title>N1010&#45;&gt;F10</title>
<path fill="none" stroke="black" d="M1133.96,-20.45C795.4,-35.04 456.84,-35.18 118.28,-20.89"/>
<polygon fill="black" stroke="black" points="118.4,-17.39 108.26,-20.46 118.11,-24.38 118.4,-17.39"/>
</g>
</g>
</svg>
