<?xml version="1.0" encoding="UTF-8" standalone="no"?>
<!DOCTYPE svg PUBLIC "-//W3C//DTD SVG 1.1//EN"
 "http://www.w3.org/Graphics/SVG/1.1/DTD/svg11.dtd">
<!-- Generated by graphviz version 2.46.0 (20210118.1747)
 -->
<!-- Title: G Pages: 1 -->
<svg width="2416pt" height="943pt"
 viewBox="0.00 0.00 2416.49 943.00" xmlns="http://www.w3.org/2000/svg" xmlns:xlink="http://www.w3.org/1999/xlink">
<g id="graph0" class="graph" transform="scale(1 1) rotate(0) translate(4 939)">
<title>G</title>
<polygon fill="white" stroke="transparent" points="-4,4 -4,-939 2412.49,-939 2412.49,4 -4,4"/>
<g id="clust1" class="cluster">
<title>cluster_Clientes_Atendidos</title>
<polygon fill="#c1ffc1" stroke="black" points="28.22,-8 28.22,-115 301.49,-115 301.49,-8 28.22,-8"/>
<text text-anchor="middle" x="164.86" y="-99.8" font-family="Times New Roman,serif" font-size="14.00">LISTA CLIENTES ATENDIDOS</text>
</g>
<g id="clust3" class="cluster">
<title>cluster_impresoras</title>
<polygon fill="mintcream" stroke="black" points="8,-238 8,-371 870.49,-371 870.49,-238 8,-238"/>
<text text-anchor="middle" x="439.25" y="-355.8" font-family="Times New Roman,serif" font-size="14.00">COLA IMPRESORAS</text>
</g>
<g id="clust2" class="cluster">
<title>cluster_clientes_espera</title>
<polygon fill="mintcream" stroke="black" points="28.22,-123 28.22,-230 439.49,-230 439.49,-123 28.22,-123"/>
<text text-anchor="middle" x="233.86" y="-214.8" font-family="Times New Roman,serif" font-size="14.00">LISTA DE CLIENTES EN ESPERA</text>
</g>
<g id="clust4" class="cluster">
<title>cluster_ventanillas</title>
<polygon fill="mintcream" stroke="black" points="18.75,-379 18.75,-812 441.49,-812 441.49,-379 18.75,-379"/>
<text text-anchor="middle" x="230.12" y="-796.8" font-family="Times New Roman,serif" font-size="14.00">LISTA VENTANILLA</text>
</g>
<g id="clust26" class="cluster">
<title>cluster_recepcion</title>
<polygon fill="bisque" stroke="black" points="28.22,-820 28.22,-927 2400.49,-927 2400.49,-820 28.22,-820"/>
<text text-anchor="middle" x="1214.36" y="-911.8" font-family="Times New Roman,serif" font-size="14.00">COLA RECEPCIÓN</text>
</g>
<!-- Start5 -->
<g id="node1" class="node">
<title>Start5</title>
<polygon fill="none" stroke="black" points="75.75,-68 36.2,-50 75.75,-32 115.29,-50 75.75,-68"/>
<polyline fill="none" stroke="black" points="47.12,-54.97 47.12,-45.03 "/>
<polyline fill="none" stroke="black" points="64.82,-36.97 86.67,-36.97 "/>
<polyline fill="none" stroke="black" points="104.37,-45.03 104.37,-54.97 "/>
<polyline fill="none" stroke="black" points="86.67,-63.03 64.82,-63.03 "/>
<text text-anchor="middle" x="75.75" y="-46.3" font-family="Times New Roman,serif" font-size="14.00">Start</text>
</g>
<!-- Nodo558569884 -->
<g id="node2" class="node">
<title>Nodo558569884</title>
<polygon fill="none" stroke="black" points="293.49,-84 290.49,-88 269.49,-88 266.49,-84 171.49,-84 171.49,-16 293.49,-16 293.49,-84"/>
<text text-anchor="middle" x="232.49" y="-68.8" font-family="Times New Roman,serif" font-size="14.00">Cliente 2</text>
<text text-anchor="middle" x="232.49" y="-53.8" font-family="Times New Roman,serif" font-size="14.00">Hudson Lancaster </text>
<text text-anchor="middle" x="232.49" y="-38.8" font-family="Times New Roman,serif" font-size="14.00"> Color: 1</text>
<text text-anchor="middle" x="232.49" y="-23.8" font-family="Times New Roman,serif" font-size="14.00"> B&amp;W: 1</text>
</g>
<!-- Start5&#45;&gt;Nodo558569884 -->
<g id="edge1" class="edge">
<title>Start5&#45;&gt;Nodo558569884</title>
<path fill="none" stroke="black" d="M115.39,-50C129.27,-50 145.39,-50 161.12,-50"/>
<polygon fill="black" stroke="black" points="161.38,-53.5 171.38,-50 161.38,-46.5 161.38,-53.5"/>
</g>
<!-- Start4 -->
<g id="node3" class="node">
<title>Start4</title>
<polygon fill="none" stroke="black" points="75.75,-183 36.2,-165 75.75,-147 115.29,-165 75.75,-183"/>
<polyline fill="none" stroke="black" points="47.12,-169.97 47.12,-160.03 "/>
<polyline fill="none" stroke="black" points="64.82,-151.97 86.67,-151.97 "/>
<polyline fill="none" stroke="black" points="104.37,-160.03 104.37,-169.97 "/>
<polyline fill="none" stroke="black" points="86.67,-178.03 64.82,-178.03 "/>
<text text-anchor="middle" x="75.75" y="-161.3" font-family="Times New Roman,serif" font-size="14.00">Start</text>
</g>
<!-- Nodo1564984895 -->
<g id="node4" class="node">
<title>Nodo1564984895</title>
<polygon fill="none" stroke="black" points="276.99,-199 273.99,-203 252.99,-203 249.99,-199 187.99,-199 187.99,-131 276.99,-131 276.99,-199"/>
<text text-anchor="middle" x="232.49" y="-183.8" font-family="Times New Roman,serif" font-size="14.00">Cliente 1</text>
<text text-anchor="middle" x="232.49" y="-168.8" font-family="Times New Roman,serif" font-size="14.00">Long Meyer </text>
<text text-anchor="middle" x="232.49" y="-153.8" font-family="Times New Roman,serif" font-size="14.00"> Color: 1</text>
<text text-anchor="middle" x="232.49" y="-138.8" font-family="Times New Roman,serif" font-size="14.00"> B&amp;W: 1</text>
</g>
<!-- Start4&#45;&gt;Nodo1564984895 -->
<g id="edge2" class="edge">
<title>Start4&#45;&gt;Nodo1564984895</title>
<path fill="none" stroke="black" d="M115.39,-165C134.23,-165 157.2,-165 177.72,-165"/>
<polygon fill="black" stroke="black" points="177.88,-168.5 187.88,-165 177.88,-161.5 177.88,-168.5"/>
</g>
<!-- Nodo550752602 -->
<g id="node5" class="node">
<title>Nodo550752602</title>
<polygon fill="none" stroke="black" points="431.49,-199 428.49,-203 407.49,-203 404.49,-199 337.49,-199 337.49,-131 431.49,-131 431.49,-199"/>
<text text-anchor="middle" x="384.49" y="-183.8" font-family="Times New Roman,serif" font-size="14.00">Cliente 3</text>
<text text-anchor="middle" x="384.49" y="-168.8" font-family="Times New Roman,serif" font-size="14.00">Ellison Hood </text>
<text text-anchor="middle" x="384.49" y="-153.8" font-family="Times New Roman,serif" font-size="14.00"> Color: 0</text>
<text text-anchor="middle" x="384.49" y="-138.8" font-family="Times New Roman,serif" font-size="14.00"> B&amp;W: 0</text>
</g>
<!-- Nodo1564984895&#45;&gt;Nodo550752602 -->
<g id="edge3" class="edge">
<title>Nodo1564984895&#45;&gt;Nodo550752602</title>
<path fill="none" stroke="black" d="M277.28,-146.4C292.89,-144.65 310.7,-144.29 327.21,-145.32"/>
<polygon fill="black" stroke="black" points="327.04,-148.82 337.3,-146.14 327.61,-141.84 327.04,-148.82"/>
</g>
<!-- Nodo1564984895&#45;&gt;Nodo550752602 -->
<g id="edge4" class="edge">
<title>Nodo1564984895&#45;&gt;Nodo550752602</title>
<path fill="none" stroke="black" d="M277.28,-158.8C292.89,-158.22 310.7,-158.1 327.21,-158.44"/>
<polygon fill="black" stroke="black" points="327.2,-161.94 337.3,-158.71 327.39,-154.94 327.2,-161.94"/>
</g>
<!-- Nodo550752602&#45;&gt;Nodo1564984895 -->
<g id="edge5" class="edge">
<title>Nodo550752602&#45;&gt;Nodo1564984895</title>
<path fill="none" stroke="black" d="M337.3,-171.29C321.62,-171.82 303.96,-171.89 287.72,-171.51"/>
<polygon fill="black" stroke="black" points="287.38,-168 277.28,-171.2 287.17,-175 287.38,-168"/>
</g>
<!-- Nodo550752602&#45;&gt;Nodo1564984895 -->
<g id="edge6" class="edge">
<title>Nodo550752602&#45;&gt;Nodo1564984895</title>
<path fill="none" stroke="black" d="M337.3,-183.86C321.47,-185.46 303.63,-185.68 287.25,-184.51"/>
<polygon fill="black" stroke="black" points="287.56,-181.02 277.28,-183.6 286.92,-187.99 287.56,-181.02"/>
</g>
<!-- Start31 -->
<g id="node6" class="node">
<title>Start31</title>
<polygon fill="none" stroke="black" points="75.75,-339 15.75,-321 75.75,-303 135.74,-321 75.75,-339"/>
<polyline fill="none" stroke="black" points="27.25,-324.45 27.25,-317.55 "/>
<polyline fill="none" stroke="black" points="64.25,-306.45 87.24,-306.45 "/>
<polyline fill="none" stroke="black" points="124.24,-317.55 124.24,-324.45 "/>
<polyline fill="none" stroke="black" points="87.24,-335.55 64.25,-335.55 "/>
<text text-anchor="middle" x="75.75" y="-317.3" font-family="Times New Roman,serif" font-size="14.00">COLOR</text>
</g>
<!-- Nodo1436664465 -->
<g id="node8" class="node">
<title>Nodo1436664465</title>
<polygon fill="none" stroke="black" points="258.99,-340 199.99,-340 199.99,-302 264.99,-302 264.99,-334 258.99,-340"/>
<polyline fill="none" stroke="black" points="258.99,-340 258.99,-334 "/>
<polyline fill="none" stroke="black" points="264.99,-334 258.99,-334 "/>
<text text-anchor="middle" x="232.49" y="-324.8" font-family="Times New Roman,serif" font-size="14.00">COLOR</text>
<text text-anchor="middle" x="232.49" y="-309.8" font-family="Times New Roman,serif" font-size="14.00"> 1 </text>
</g>
<!-- Start31&#45;&gt;Nodo1436664465 -->
<g id="edge7" class="edge">
<title>Start31&#45;&gt;Nodo1436664465</title>
<path fill="none" stroke="black" d="M135.69,-321C153.63,-321 172.97,-321 189.54,-321"/>
<polygon fill="black" stroke="black" points="189.99,-324.5 199.99,-321 189.99,-317.5 189.99,-324.5"/>
</g>
<!-- Start32 -->
<g id="node7" class="node">
<title>Start32</title>
<polygon fill="none" stroke="black" points="75.75,-283 29.83,-265 75.75,-247 121.66,-265 75.75,-283"/>
<polyline fill="none" stroke="black" points="41,-269.38 41,-260.62 "/>
<polyline fill="none" stroke="black" points="64.57,-251.38 86.92,-251.38 "/>
<polyline fill="none" stroke="black" points="110.49,-260.62 110.49,-269.38 "/>
<polyline fill="none" stroke="black" points="86.92,-278.62 64.57,-278.62 "/>
<text text-anchor="middle" x="75.75" y="-261.3" font-family="Times New Roman,serif" font-size="14.00">B&amp;W</text>
</g>
<!-- Nodo315860201 -->
<g id="node13" class="node">
<title>Nodo315860201</title>
<polygon fill="none" stroke="black" points="253.49,-284 205.49,-284 205.49,-246 259.49,-246 259.49,-278 253.49,-284"/>
<polyline fill="none" stroke="black" points="253.49,-284 253.49,-278 "/>
<polyline fill="none" stroke="black" points="259.49,-278 253.49,-278 "/>
<text text-anchor="middle" x="232.49" y="-268.8" font-family="Times New Roman,serif" font-size="14.00">B&amp;W</text>
<text text-anchor="middle" x="232.49" y="-253.8" font-family="Times New Roman,serif" font-size="14.00"> 1</text>
</g>
<!-- Start32&#45;&gt;Nodo315860201 -->
<g id="edge12" class="edge">
<title>Start32&#45;&gt;Nodo315860201</title>
<path fill="none" stroke="black" d="M121.92,-265C145.23,-265 173.28,-265 195.16,-265"/>
<polygon fill="black" stroke="black" points="195.36,-268.5 205.36,-265 195.36,-261.5 195.36,-268.5"/>
</g>
<!-- Nodo558187323 -->
<g id="node9" class="node">
<title>Nodo558187323</title>
<polygon fill="none" stroke="black" points="410.99,-340 351.99,-340 351.99,-302 416.99,-302 416.99,-334 410.99,-340"/>
<polyline fill="none" stroke="black" points="410.99,-340 410.99,-334 "/>
<polyline fill="none" stroke="black" points="416.99,-334 410.99,-334 "/>
<text text-anchor="middle" x="384.49" y="-324.8" font-family="Times New Roman,serif" font-size="14.00">COLOR</text>
<text text-anchor="middle" x="384.49" y="-309.8" font-family="Times New Roman,serif" font-size="14.00"> 2 </text>
</g>
<!-- Nodo1436664465&#45;&gt;Nodo558187323 -->
<g id="edge8" class="edge">
<title>Nodo1436664465&#45;&gt;Nodo558187323</title>
<path fill="none" stroke="black" d="M265.3,-321C287.55,-321 317.49,-321 341.67,-321"/>
<polygon fill="black" stroke="black" points="341.98,-324.5 351.98,-321 341.98,-317.5 341.98,-324.5"/>
</g>
<!-- Nodo680779399 -->
<g id="node10" class="node">
<title>Nodo680779399</title>
<polygon fill="none" stroke="black" points="575.99,-340 516.99,-340 516.99,-302 581.99,-302 581.99,-334 575.99,-340"/>
<polyline fill="none" stroke="black" points="575.99,-340 575.99,-334 "/>
<polyline fill="none" stroke="black" points="581.99,-334 575.99,-334 "/>
<text text-anchor="middle" x="549.49" y="-324.8" font-family="Times New Roman,serif" font-size="14.00">COLOR</text>
<text text-anchor="middle" x="549.49" y="-309.8" font-family="Times New Roman,serif" font-size="14.00"> 2 </text>
</g>
<!-- Nodo558187323&#45;&gt;Nodo680779399 -->
<g id="edge9" class="edge">
<title>Nodo558187323&#45;&gt;Nodo680779399</title>
<path fill="none" stroke="black" d="M417.31,-321C442.77,-321 478.71,-321 506.53,-321"/>
<polygon fill="black" stroke="black" points="506.76,-324.5 516.76,-321 506.76,-317.5 506.76,-324.5"/>
</g>
<!-- Nodo1439337960 -->
<g id="node11" class="node">
<title>Nodo1439337960</title>
<polygon fill="none" stroke="black" points="730.49,-340 671.49,-340 671.49,-302 736.49,-302 736.49,-334 730.49,-340"/>
<polyline fill="none" stroke="black" points="730.49,-340 730.49,-334 "/>
<polyline fill="none" stroke="black" points="736.49,-334 730.49,-334 "/>
<text text-anchor="middle" x="703.99" y="-324.8" font-family="Times New Roman,serif" font-size="14.00">COLOR</text>
<text text-anchor="middle" x="703.99" y="-309.8" font-family="Times New Roman,serif" font-size="14.00"> 2 </text>
</g>
<!-- Nodo680779399&#45;&gt;Nodo1439337960 -->
<g id="edge10" class="edge">
<title>Nodo680779399&#45;&gt;Nodo1439337960</title>
<path fill="none" stroke="black" d="M582.09,-321C604.99,-321 636.19,-321 661.16,-321"/>
<polygon fill="black" stroke="black" points="661.43,-324.5 671.43,-321 661.43,-317.5 661.43,-324.5"/>
</g>
<!-- Nodo741669172 -->
<g id="node12" class="node">
<title>Nodo741669172</title>
<polygon fill="none" stroke="black" points="856.49,-340 797.49,-340 797.49,-302 862.49,-302 862.49,-334 856.49,-340"/>
<polyline fill="none" stroke="black" points="856.49,-340 856.49,-334 "/>
<polyline fill="none" stroke="black" points="862.49,-334 856.49,-334 "/>
<text text-anchor="middle" x="829.99" y="-324.8" font-family="Times New Roman,serif" font-size="14.00">COLOR</text>
<text text-anchor="middle" x="829.99" y="-309.8" font-family="Times New Roman,serif" font-size="14.00"> 2 </text>
</g>
<!-- Nodo1439337960&#45;&gt;Nodo741669172 -->
<g id="edge11" class="edge">
<title>Nodo1439337960&#45;&gt;Nodo741669172</title>
<path fill="none" stroke="black" d="M736.6,-321C751.91,-321 770.49,-321 786.97,-321"/>
<polygon fill="black" stroke="black" points="787.44,-324.5 797.44,-321 787.44,-317.5 787.44,-324.5"/>
</g>
<!-- Nodo604125138 -->
<g id="node14" class="node">
<title>Nodo604125138</title>
<polygon fill="none" stroke="black" points="405.49,-284 357.49,-284 357.49,-246 411.49,-246 411.49,-278 405.49,-284"/>
<polyline fill="none" stroke="black" points="405.49,-284 405.49,-278 "/>
<polyline fill="none" stroke="black" points="411.49,-278 405.49,-278 "/>
<text text-anchor="middle" x="384.49" y="-268.8" font-family="Times New Roman,serif" font-size="14.00">B&amp;W</text>
<text text-anchor="middle" x="384.49" y="-253.8" font-family="Times New Roman,serif" font-size="14.00"> 1</text>
</g>
<!-- Nodo315860201&#45;&gt;Nodo604125138 -->
<g id="edge13" class="edge">
<title>Nodo315860201&#45;&gt;Nodo604125138</title>
<path fill="none" stroke="black" d="M259.62,-265C283.85,-265 320.14,-265 347.18,-265"/>
<polygon fill="black" stroke="black" points="347.41,-268.5 357.41,-265 347.41,-261.5 347.41,-268.5"/>
</g>
<!-- Nodo631659383 -->
<g id="node15" class="node">
<title>Nodo631659383</title>
<polygon fill="none" stroke="black" points="570.49,-284 522.49,-284 522.49,-246 576.49,-246 576.49,-278 570.49,-284"/>
<polyline fill="none" stroke="black" points="570.49,-284 570.49,-278 "/>
<polyline fill="none" stroke="black" points="576.49,-278 570.49,-278 "/>
<text text-anchor="middle" x="549.49" y="-268.8" font-family="Times New Roman,serif" font-size="14.00">B&amp;W</text>
<text text-anchor="middle" x="549.49" y="-253.8" font-family="Times New Roman,serif" font-size="14.00"> 1</text>
</g>
<!-- Nodo604125138&#45;&gt;Nodo631659383 -->
<g id="edge14" class="edge">
<title>Nodo604125138&#45;&gt;Nodo631659383</title>
<path fill="none" stroke="black" d="M411.68,-265C438.89,-265 481.67,-265 512.15,-265"/>
<polygon fill="black" stroke="black" points="512.37,-268.5 522.37,-265 512.37,-261.5 512.37,-268.5"/>
</g>
<!-- Nodo680576081 -->
<g id="node16" class="node">
<title>Nodo680576081</title>
<polygon fill="none" stroke="black" points="124.75,-781 121.75,-785 100.75,-785 97.75,-781 26.75,-781 26.75,-713 124.75,-713 124.75,-781"/>
<text text-anchor="middle" x="75.75" y="-765.8" font-family="Times New Roman,serif" font-size="14.00"> Cliente 5</text>
<text text-anchor="middle" x="75.75" y="-750.8" font-family="Times New Roman,serif" font-size="14.00">Moore Horton</text>
<text text-anchor="middle" x="75.75" y="-735.8" font-family="Times New Roman,serif" font-size="14.00"> Color: 0</text>
<text text-anchor="middle" x="75.75" y="-720.8" font-family="Times New Roman,serif" font-size="14.00"> B&amp;W: 2</text>
</g>
<!-- Nodo1489092624 -->
<g id="node19" class="node">
<title>Nodo1489092624</title>
<polygon fill="none" stroke="black" points="114.75,-695 40.75,-695 36.75,-691 36.75,-657 110.75,-657 114.75,-661 114.75,-695"/>
<polyline fill="none" stroke="black" points="110.75,-691 36.75,-691 "/>
<polyline fill="none" stroke="black" points="110.75,-691 110.75,-657 "/>
<polyline fill="none" stroke="black" points="110.75,-691 114.75,-695 "/>
<text text-anchor="middle" x="75.75" y="-679.8" font-family="Times New Roman,serif" font-size="14.00"> Ventanilla </text>
<text text-anchor="middle" x="75.75" y="-664.8" font-family="Times New Roman,serif" font-size="14.00"> 1</text>
</g>
<!-- Nodo680576081&#45;&gt;Nodo1489092624 -->
<g id="edge15" class="edge">
<title>Nodo680576081&#45;&gt;Nodo1489092624</title>
<path fill="none" stroke="black" d="M75.75,-712.96C75.75,-710.36 75.75,-707.76 75.75,-705.16"/>
<polygon fill="black" stroke="black" points="79.25,-705.14 75.75,-695.14 72.25,-705.14 79.25,-705.14"/>
</g>
<!-- Nodo453523494 -->
<g id="node17" class="node">
<title>Nodo453523494</title>
<polygon fill="none" stroke="black" points="287.49,-781 284.49,-785 263.49,-785 260.49,-781 177.49,-781 177.49,-713 287.49,-713 287.49,-781"/>
<text text-anchor="middle" x="232.49" y="-765.8" font-family="Times New Roman,serif" font-size="14.00"> Cliente 4</text>
<text text-anchor="middle" x="232.49" y="-750.8" font-family="Times New Roman,serif" font-size="14.00">Whitney Clayton</text>
<text text-anchor="middle" x="232.49" y="-735.8" font-family="Times New Roman,serif" font-size="14.00"> Color: 0</text>
<text text-anchor="middle" x="232.49" y="-720.8" font-family="Times New Roman,serif" font-size="14.00"> B&amp;W: 0</text>
</g>
<!-- Nodo664457955 -->
<g id="node24" class="node">
<title>Nodo664457955</title>
<polygon fill="none" stroke="black" points="271.49,-695 197.49,-695 193.49,-691 193.49,-657 267.49,-657 271.49,-661 271.49,-695"/>
<polyline fill="none" stroke="black" points="267.49,-691 193.49,-691 "/>
<polyline fill="none" stroke="black" points="267.49,-691 267.49,-657 "/>
<polyline fill="none" stroke="black" points="267.49,-691 271.49,-695 "/>
<text text-anchor="middle" x="232.49" y="-679.8" font-family="Times New Roman,serif" font-size="14.00"> Ventanilla </text>
<text text-anchor="middle" x="232.49" y="-664.8" font-family="Times New Roman,serif" font-size="14.00"> 2</text>
</g>
<!-- Nodo453523494&#45;&gt;Nodo664457955 -->
<g id="edge21" class="edge">
<title>Nodo453523494&#45;&gt;Nodo664457955</title>
<path fill="none" stroke="black" d="M232.49,-712.96C232.49,-710.36 232.49,-707.76 232.49,-705.16"/>
<polygon fill="black" stroke="black" points="235.99,-705.14 232.49,-695.14 228.99,-705.14 235.99,-705.14"/>
</g>
<!-- Nodo1466073198 -->
<g id="node18" class="node">
<title>Nodo1466073198</title>
<polygon fill="none" stroke="black" points="433.49,-781 430.49,-785 409.49,-785 406.49,-781 335.49,-781 335.49,-713 433.49,-713 433.49,-781"/>
<text text-anchor="middle" x="384.49" y="-765.8" font-family="Times New Roman,serif" font-size="14.00"> Cliente 6</text>
<text text-anchor="middle" x="384.49" y="-750.8" font-family="Times New Roman,serif" font-size="14.00">Maggie Levine</text>
<text text-anchor="middle" x="384.49" y="-735.8" font-family="Times New Roman,serif" font-size="14.00"> Color: 4</text>
<text text-anchor="middle" x="384.49" y="-720.8" font-family="Times New Roman,serif" font-size="14.00"> B&amp;W: 2</text>
</g>
<!-- Nodo891095110 -->
<g id="node30" class="node">
<title>Nodo891095110</title>
<polygon fill="none" stroke="black" points="423.49,-695 349.49,-695 345.49,-691 345.49,-657 419.49,-657 423.49,-661 423.49,-695"/>
<polyline fill="none" stroke="black" points="419.49,-691 345.49,-691 "/>
<polyline fill="none" stroke="black" points="419.49,-691 419.49,-657 "/>
<polyline fill="none" stroke="black" points="419.49,-691 423.49,-695 "/>
<text text-anchor="middle" x="384.49" y="-679.8" font-family="Times New Roman,serif" font-size="14.00"> Ventanilla </text>
<text text-anchor="middle" x="384.49" y="-664.8" font-family="Times New Roman,serif" font-size="14.00"> 3</text>
</g>
<!-- Nodo1466073198&#45;&gt;Nodo891095110 -->
<g id="edge28" class="edge">
<title>Nodo1466073198&#45;&gt;Nodo891095110</title>
<path fill="none" stroke="black" d="M384.49,-712.96C384.49,-710.36 384.49,-707.76 384.49,-705.16"/>
<polygon fill="black" stroke="black" points="387.99,-705.14 384.49,-695.14 380.99,-705.14 387.99,-705.14"/>
</g>
<!-- Nodo1088872417 -->
<g id="node20" class="node">
<title>Nodo1088872417</title>
<polygon fill="none" stroke="black" points="102.25,-636 43.25,-636 43.25,-600 108.25,-600 108.25,-630 102.25,-636"/>
<polyline fill="none" stroke="black" points="102.25,-636 102.25,-630 "/>
<polyline fill="none" stroke="black" points="108.25,-630 102.25,-630 "/>
<text text-anchor="middle" x="75.75" y="-614.3" font-family="Times New Roman,serif" font-size="14.00">COLOR</text>
</g>
<!-- Nodo1489092624&#45;&gt;Nodo1088872417 -->
<g id="edge17" class="edge">
<title>Nodo1489092624&#45;&gt;Nodo1088872417</title>
<path fill="none" stroke="black" d="M75.75,-657C75.75,-653.41 75.75,-649.82 75.75,-646.23"/>
<polygon fill="black" stroke="black" points="79.25,-646.12 75.75,-636.12 72.25,-646.13 79.25,-646.12"/>
</g>
<!-- Nodo1489092624&#45;&gt;Nodo664457955 -->
<g id="edge16" class="edge">
<title>Nodo1489092624&#45;&gt;Nodo664457955</title>
<path fill="none" stroke="black" d="M115,-676C135.63,-676 161.29,-676 183.28,-676"/>
<polygon fill="black" stroke="black" points="183.41,-679.5 193.41,-676 183.41,-672.5 183.41,-679.5"/>
</g>
<!-- Nodo785447854 -->
<g id="node21" class="node">
<title>Nodo785447854</title>
<polygon fill="none" stroke="black" points="102.25,-575 43.25,-575 43.25,-539 108.25,-539 108.25,-569 102.25,-575"/>
<polyline fill="none" stroke="black" points="102.25,-575 102.25,-569 "/>
<polyline fill="none" stroke="black" points="108.25,-569 102.25,-569 "/>
<text text-anchor="middle" x="75.75" y="-553.3" font-family="Times New Roman,serif" font-size="14.00">COLOR</text>
</g>
<!-- Nodo1088872417&#45;&gt;Nodo785447854 -->
<g id="edge18" class="edge">
<title>Nodo1088872417&#45;&gt;Nodo785447854</title>
<path fill="none" stroke="black" d="M75.75,-599.91C75.75,-595 75.75,-590.09 75.75,-585.18"/>
<polygon fill="black" stroke="black" points="79.25,-585.11 75.75,-575.11 72.25,-585.11 79.25,-585.11"/>
</g>
<!-- Nodo556529265 -->
<g id="node22" class="node">
<title>Nodo556529265</title>
<polygon fill="none" stroke="black" points="96.75,-508 48.75,-508 48.75,-472 102.75,-472 102.75,-502 96.75,-508"/>
<polyline fill="none" stroke="black" points="96.75,-508 96.75,-502 "/>
<polyline fill="none" stroke="black" points="102.75,-502 96.75,-502 "/>
<text text-anchor="middle" x="75.75" y="-486.3" font-family="Times New Roman,serif" font-size="14.00">B&amp;W</text>
</g>
<!-- Nodo785447854&#45;&gt;Nodo556529265 -->
<g id="edge19" class="edge">
<title>Nodo785447854&#45;&gt;Nodo556529265</title>
<path fill="none" stroke="black" d="M75.75,-538.65C75.75,-531.8 75.75,-524.95 75.75,-518.1"/>
<polygon fill="black" stroke="black" points="79.25,-518.06 75.75,-508.06 72.25,-518.06 79.25,-518.06"/>
</g>
<!-- Nodo346224929 -->
<g id="node23" class="node">
<title>Nodo346224929</title>
<polygon fill="none" stroke="black" points="96.75,-427 48.75,-427 48.75,-391 102.75,-391 102.75,-421 96.75,-427"/>
<polyline fill="none" stroke="black" points="96.75,-427 96.75,-421 "/>
<polyline fill="none" stroke="black" points="102.75,-421 96.75,-421 "/>
<text text-anchor="middle" x="75.75" y="-405.3" font-family="Times New Roman,serif" font-size="14.00">B&amp;W</text>
</g>
<!-- Nodo556529265&#45;&gt;Nodo346224929 -->
<g id="edge20" class="edge">
<title>Nodo556529265&#45;&gt;Nodo346224929</title>
<path fill="none" stroke="black" d="M75.75,-471.8C75.75,-460.26 75.75,-448.72 75.75,-437.18"/>
<polygon fill="black" stroke="black" points="79.25,-437.04 75.75,-427.04 72.25,-437.04 79.25,-437.04"/>
</g>
<!-- Nodo274722023 -->
<g id="node25" class="node">
<title>Nodo274722023</title>
<polygon fill="none" stroke="black" points="258.99,-639 199.99,-639 199.99,-603 264.99,-603 264.99,-633 258.99,-639"/>
<polyline fill="none" stroke="black" points="258.99,-639 258.99,-633 "/>
<polyline fill="none" stroke="black" points="264.99,-633 258.99,-633 "/>
<text text-anchor="middle" x="232.49" y="-617.3" font-family="Times New Roman,serif" font-size="14.00">COLOR</text>
</g>
<!-- Nodo664457955&#45;&gt;Nodo274722023 -->
<g id="edge23" class="edge">
<title>Nodo664457955&#45;&gt;Nodo274722023</title>
<path fill="none" stroke="black" d="M232.49,-656.95C232.49,-654.34 232.49,-651.73 232.49,-649.12"/>
<polygon fill="black" stroke="black" points="235.99,-649.05 232.49,-639.05 228.99,-649.05 235.99,-649.05"/>
</g>
<!-- Nodo664457955&#45;&gt;Nodo891095110 -->
<g id="edge22" class="edge">
<title>Nodo664457955&#45;&gt;Nodo891095110</title>
<path fill="none" stroke="black" d="M271.73,-676C291.04,-676 314.66,-676 335.21,-676"/>
<polygon fill="black" stroke="black" points="335.32,-679.5 345.32,-676 335.32,-672.5 335.32,-679.5"/>
</g>
<!-- Nodo1052967153 -->
<g id="node26" class="node">
<title>Nodo1052967153</title>
<polygon fill="none" stroke="black" points="253.49,-585 205.49,-585 205.49,-549 259.49,-549 259.49,-579 253.49,-585"/>
<polyline fill="none" stroke="black" points="253.49,-585 253.49,-579 "/>
<polyline fill="none" stroke="black" points="259.49,-579 253.49,-579 "/>
<text text-anchor="middle" x="232.49" y="-563.3" font-family="Times New Roman,serif" font-size="14.00">B&amp;W</text>
</g>
<!-- Nodo274722023&#45;&gt;Nodo1052967153 -->
<g id="edge24" class="edge">
<title>Nodo274722023&#45;&gt;Nodo1052967153</title>
<path fill="none" stroke="black" d="M232.49,-602.79C232.49,-600.31 232.49,-597.83 232.49,-595.34"/>
<polygon fill="black" stroke="black" points="235.99,-595.14 232.49,-585.14 228.99,-595.14 235.99,-595.14"/>
</g>
<!-- Nodo63468833 -->
<g id="node27" class="node">
<title>Nodo63468833</title>
<polygon fill="none" stroke="black" points="253.49,-531 205.49,-531 205.49,-495 259.49,-495 259.49,-525 253.49,-531"/>
<polyline fill="none" stroke="black" points="253.49,-531 253.49,-525 "/>
<polyline fill="none" stroke="black" points="259.49,-525 253.49,-525 "/>
<text text-anchor="middle" x="232.49" y="-509.3" font-family="Times New Roman,serif" font-size="14.00">B&amp;W</text>
</g>
<!-- Nodo1052967153&#45;&gt;Nodo63468833 -->
<g id="edge25" class="edge">
<title>Nodo1052967153&#45;&gt;Nodo63468833</title>
<path fill="none" stroke="black" d="M232.49,-548.79C232.49,-546.31 232.49,-543.83 232.49,-541.34"/>
<polygon fill="black" stroke="black" points="235.99,-541.14 232.49,-531.14 228.99,-541.14 235.99,-541.14"/>
</g>
<!-- Nodo720167805 -->
<g id="node28" class="node">
<title>Nodo720167805</title>
<polygon fill="none" stroke="black" points="253.49,-477 205.49,-477 205.49,-441 259.49,-441 259.49,-471 253.49,-477"/>
<polyline fill="none" stroke="black" points="253.49,-477 253.49,-471 "/>
<polyline fill="none" stroke="black" points="259.49,-471 253.49,-471 "/>
<text text-anchor="middle" x="232.49" y="-455.3" font-family="Times New Roman,serif" font-size="14.00">B&amp;W</text>
</g>
<!-- Nodo63468833&#45;&gt;Nodo720167805 -->
<g id="edge26" class="edge">
<title>Nodo63468833&#45;&gt;Nodo720167805</title>
<path fill="none" stroke="black" d="M232.49,-494.79C232.49,-492.31 232.49,-489.83 232.49,-487.34"/>
<polygon fill="black" stroke="black" points="235.99,-487.14 232.49,-477.14 228.99,-487.14 235.99,-487.14"/>
</g>
<!-- Nodo1418334255 -->
<g id="node29" class="node">
<title>Nodo1418334255</title>
<polygon fill="none" stroke="black" points="253.49,-423 205.49,-423 205.49,-387 259.49,-387 259.49,-417 253.49,-423"/>
<polyline fill="none" stroke="black" points="253.49,-423 253.49,-417 "/>
<polyline fill="none" stroke="black" points="259.49,-417 253.49,-417 "/>
<text text-anchor="middle" x="232.49" y="-401.3" font-family="Times New Roman,serif" font-size="14.00">B&amp;W</text>
</g>
<!-- Nodo720167805&#45;&gt;Nodo1418334255 -->
<g id="edge27" class="edge">
<title>Nodo720167805&#45;&gt;Nodo1418334255</title>
<path fill="none" stroke="black" d="M232.49,-440.79C232.49,-438.31 232.49,-435.83 232.49,-433.34"/>
<polygon fill="black" stroke="black" points="235.99,-433.14 232.49,-423.14 228.99,-433.14 235.99,-433.14"/>
</g>
<!-- Start1 -->
<g id="node31" class="node">
<title>Start1</title>
<polygon fill="none" stroke="black" points="75.75,-880 36.2,-862 75.75,-844 115.29,-862 75.75,-880"/>
<polyline fill="none" stroke="black" points="47.12,-866.97 47.12,-857.03 "/>
<polyline fill="none" stroke="black" points="64.82,-848.97 86.67,-848.97 "/>
<polyline fill="none" stroke="black" points="104.37,-857.03 104.37,-866.97 "/>
<polyline fill="none" stroke="black" points="86.67,-875.03 64.82,-875.03 "/>
<text text-anchor="middle" x="75.75" y="-858.3" font-family="Times New Roman,serif" font-size="14.00">Start</text>
</g>
<!-- Nodo436546048 -->
<g id="node32" class="node">
<title>Nodo436546048</title>
<polygon fill="none" stroke="black" points="290.49,-896 287.49,-900 266.49,-900 263.49,-896 174.49,-896 174.49,-828 290.49,-828 290.49,-896"/>
<text text-anchor="middle" x="232.49" y="-880.8" font-family="Times New Roman,serif" font-size="14.00">Cliente 7</text>
<text text-anchor="middle" x="232.49" y="-865.8" font-family="Times New Roman,serif" font-size="14.00">Mabel Nicholson </text>
<text text-anchor="middle" x="232.49" y="-850.8" font-family="Times New Roman,serif" font-size="14.00"> Color: 2</text>
<text text-anchor="middle" x="232.49" y="-835.8" font-family="Times New Roman,serif" font-size="14.00"> B&amp;W: 2</text>
</g>
<!-- Start1&#45;&gt;Nodo436546048 -->
<g id="edge29" class="edge">
<title>Start1&#45;&gt;Nodo436546048</title>
<path fill="none" stroke="black" d="M115.39,-862C130.15,-862 147.43,-862 164.09,-862"/>
<polygon fill="black" stroke="black" points="164.35,-865.5 174.35,-862 164.35,-858.5 164.35,-865.5"/>
</g>
<!-- Nodo1300393335 -->
<g id="node33" class="node">
<title>Nodo1300393335</title>
<polygon fill="none" stroke="black" points="439.49,-896 436.49,-900 415.49,-900 412.49,-896 329.49,-896 329.49,-828 439.49,-828 439.49,-896"/>
<text text-anchor="middle" x="384.49" y="-880.8" font-family="Times New Roman,serif" font-size="14.00">Cliente 8</text>
<text text-anchor="middle" x="384.49" y="-865.8" font-family="Times New Roman,serif" font-size="14.00">Maddox Frazier </text>
<text text-anchor="middle" x="384.49" y="-850.8" font-family="Times New Roman,serif" font-size="14.00"> Color: 1</text>
<text text-anchor="middle" x="384.49" y="-835.8" font-family="Times New Roman,serif" font-size="14.00"> B&amp;W: 3</text>
</g>
<!-- Nodo436546048&#45;&gt;Nodo1300393335 -->
<g id="edge30" class="edge">
<title>Nodo436546048&#45;&gt;Nodo1300393335</title>
<path fill="none" stroke="black" d="M290.63,-862C299.99,-862 309.75,-862 319.27,-862"/>
<polygon fill="black" stroke="black" points="319.48,-865.5 329.48,-862 319.48,-858.5 319.48,-865.5"/>
</g>
<!-- Nodo1627428162 -->
<g id="node34" class="node">
<title>Nodo1627428162</title>
<polygon fill="none" stroke="black" points="623.49,-896 620.49,-900 599.49,-900 596.49,-896 475.49,-896 475.49,-828 623.49,-828 623.49,-896"/>
<text text-anchor="middle" x="549.49" y="-880.8" font-family="Times New Roman,serif" font-size="14.00">Cliente 9</text>
<text text-anchor="middle" x="549.49" y="-865.8" font-family="Times New Roman,serif" font-size="14.00">Washington Dickerson </text>
<text text-anchor="middle" x="549.49" y="-850.8" font-family="Times New Roman,serif" font-size="14.00"> Color: 3</text>
<text text-anchor="middle" x="549.49" y="-835.8" font-family="Times New Roman,serif" font-size="14.00"> B&amp;W: 1</text>
</g>
<!-- Nodo1300393335&#45;&gt;Nodo1627428162 -->
<g id="edge31" class="edge">
<title>Nodo1300393335&#45;&gt;Nodo1627428162</title>
<path fill="none" stroke="black" d="M439.77,-862C447.95,-862 456.56,-862 465.18,-862"/>
<polygon fill="black" stroke="black" points="465.3,-865.5 475.3,-862 465.3,-858.5 465.3,-865.5"/>
</g>
<!-- Nodo2011791487 -->
<g id="node35" class="node">
<title>Nodo2011791487</title>
<polygon fill="none" stroke="black" points="748.49,-896 745.49,-900 724.49,-900 721.49,-896 659.49,-896 659.49,-828 748.49,-828 748.49,-896"/>
<text text-anchor="middle" x="703.99" y="-880.8" font-family="Times New Roman,serif" font-size="14.00">Cliente 10</text>
<text text-anchor="middle" x="703.99" y="-865.8" font-family="Times New Roman,serif" font-size="14.00">Ethel Cortez </text>
<text text-anchor="middle" x="703.99" y="-850.8" font-family="Times New Roman,serif" font-size="14.00"> Color: 3</text>
<text text-anchor="middle" x="703.99" y="-835.8" font-family="Times New Roman,serif" font-size="14.00"> B&amp;W: 2</text>
</g>
<!-- Nodo1627428162&#45;&gt;Nodo2011791487 -->
<g id="edge32" class="edge">
<title>Nodo1627428162&#45;&gt;Nodo2011791487</title>
<path fill="none" stroke="black" d="M623.61,-862C632.21,-862 640.87,-862 649.13,-862"/>
<polygon fill="black" stroke="black" points="649.37,-865.5 659.37,-862 649.37,-858.5 649.37,-865.5"/>
</g>
<!-- Nodo1150284200 -->
<g id="node36" class="node">
<title>Nodo1150284200</title>
<polygon fill="none" stroke="black" points="875.49,-896 872.49,-900 851.49,-900 848.49,-896 784.49,-896 784.49,-828 875.49,-828 875.49,-896"/>
<text text-anchor="middle" x="829.99" y="-880.8" font-family="Times New Roman,serif" font-size="14.00">Cliente 11</text>
<text text-anchor="middle" x="829.99" y="-865.8" font-family="Times New Roman,serif" font-size="14.00">Shana Burke </text>
<text text-anchor="middle" x="829.99" y="-850.8" font-family="Times New Roman,serif" font-size="14.00"> Color: 2</text>
<text text-anchor="middle" x="829.99" y="-835.8" font-family="Times New Roman,serif" font-size="14.00"> B&amp;W: 4</text>
</g>
<!-- Nodo2011791487&#45;&gt;Nodo1150284200 -->
<g id="edge33" class="edge">
<title>Nodo2011791487&#45;&gt;Nodo1150284200</title>
<path fill="none" stroke="black" d="M748.71,-862C756.94,-862 765.64,-862 774.16,-862"/>
<polygon fill="black" stroke="black" points="774.41,-865.5 784.41,-862 774.41,-858.5 774.41,-865.5"/>
</g>
<!-- Nodo1386883398 -->
<g id="node37" class="node">
<title>Nodo1386883398</title>
<polygon fill="none" stroke="black" points="1037.49,-896 1034.49,-900 1013.49,-900 1010.49,-896 911.49,-896 911.49,-828 1037.49,-828 1037.49,-896"/>
<text text-anchor="middle" x="974.49" y="-880.8" font-family="Times New Roman,serif" font-size="14.00">Cliente 1427975368</text>
<text text-anchor="middle" x="974.49" y="-865.8" font-family="Times New Roman,serif" font-size="14.00">Donald Smith </text>
<text text-anchor="middle" x="974.49" y="-850.8" font-family="Times New Roman,serif" font-size="14.00"> Color: 5</text>
<text text-anchor="middle" x="974.49" y="-835.8" font-family="Times New Roman,serif" font-size="14.00"> B&amp;W: 1</text>
</g>
<!-- Nodo1150284200&#45;&gt;Nodo1386883398 -->
<g id="edge34" class="edge">
<title>Nodo1150284200&#45;&gt;Nodo1386883398</title>
<path fill="none" stroke="black" d="M875.69,-862C883.84,-862 892.54,-862 901.25,-862"/>
<polygon fill="black" stroke="black" points="901.46,-865.5 911.46,-862 901.46,-858.5 901.46,-865.5"/>
</g>
<!-- Nodo1306854175 -->
<g id="node38" class="node">
<title>Nodo1306854175</title>
<polygon fill="none" stroke="black" points="1204.49,-896 1201.49,-900 1180.49,-900 1177.49,-896 1073.49,-896 1073.49,-828 1204.49,-828 1204.49,-896"/>
<text text-anchor="middle" x="1138.99" y="-880.8" font-family="Times New Roman,serif" font-size="14.00">Cliente &#45;1480989479</text>
<text text-anchor="middle" x="1138.99" y="-865.8" font-family="Times New Roman,serif" font-size="14.00">Melissa Molina </text>
<text text-anchor="middle" x="1138.99" y="-850.8" font-family="Times New Roman,serif" font-size="14.00"> Color: 3</text>
<text text-anchor="middle" x="1138.99" y="-835.8" font-family="Times New Roman,serif" font-size="14.00"> B&amp;W: 2</text>
</g>
<!-- Nodo1386883398&#45;&gt;Nodo1306854175 -->
<g id="edge35" class="edge">
<title>Nodo1386883398&#45;&gt;Nodo1306854175</title>
<path fill="none" stroke="black" d="M1037.85,-862C1046.12,-862 1054.67,-862 1063.13,-862"/>
<polygon fill="black" stroke="black" points="1063.37,-865.5 1073.37,-862 1063.37,-858.5 1063.37,-865.5"/>
</g>
<!-- Nodo1975546571 -->
<g id="node39" class="node">
<title>Nodo1975546571</title>
<polygon fill="none" stroke="black" points="1389.49,-896 1386.49,-900 1365.49,-900 1362.49,-896 1240.49,-896 1240.49,-828 1389.49,-828 1389.49,-896"/>
<text text-anchor="middle" x="1314.99" y="-880.8" font-family="Times New Roman,serif" font-size="14.00">Cliente 727131036</text>
<text text-anchor="middle" x="1314.99" y="-865.8" font-family="Times New Roman,serif" font-size="14.00">Samurai Jack Murdock </text>
<text text-anchor="middle" x="1314.99" y="-850.8" font-family="Times New Roman,serif" font-size="14.00"> Color: 4</text>
<text text-anchor="middle" x="1314.99" y="-835.8" font-family="Times New Roman,serif" font-size="14.00"> B&amp;W: 4</text>
</g>
<!-- Nodo1306854175&#45;&gt;Nodo1975546571 -->
<g id="edge36" class="edge">
<title>Nodo1306854175&#45;&gt;Nodo1975546571</title>
<path fill="none" stroke="black" d="M1204.78,-862C1213.12,-862 1221.74,-862 1230.32,-862"/>
<polygon fill="black" stroke="black" points="1230.36,-865.5 1240.36,-862 1230.36,-858.5 1230.36,-865.5"/>
</g>
<!-- Nodo521960438 -->
<g id="node40" class="node">
<title>Nodo521960438</title>
<polygon fill="none" stroke="black" points="1574.49,-896 1571.49,-900 1550.49,-900 1547.49,-896 1425.49,-896 1425.49,-828 1574.49,-828 1574.49,-896"/>
<text text-anchor="middle" x="1499.99" y="-880.8" font-family="Times New Roman,serif" font-size="14.00">Cliente 2073519000</text>
<text text-anchor="middle" x="1499.99" y="-865.8" font-family="Times New Roman,serif" font-size="14.00">Samurai Jack Murdock </text>
<text text-anchor="middle" x="1499.99" y="-850.8" font-family="Times New Roman,serif" font-size="14.00"> Color: 3</text>
<text text-anchor="middle" x="1499.99" y="-835.8" font-family="Times New Roman,serif" font-size="14.00"> B&amp;W: 2</text>
</g>
<!-- Nodo1975546571&#45;&gt;Nodo521960438 -->
<g id="edge37" class="edge">
<title>Nodo1975546571&#45;&gt;Nodo521960438</title>
<path fill="none" stroke="black" d="M1389.63,-862C1397.96,-862 1406.5,-862 1414.95,-862"/>
<polygon fill="black" stroke="black" points="1415.2,-865.5 1425.2,-862 1415.2,-858.5 1415.2,-865.5"/>
</g>
<!-- Nodo632587706 -->
<g id="node41" class="node">
<title>Nodo632587706</title>
<polygon fill="none" stroke="black" points="1741.49,-896 1738.49,-900 1717.49,-900 1714.49,-896 1610.49,-896 1610.49,-828 1741.49,-828 1741.49,-896"/>
<text text-anchor="middle" x="1675.99" y="-880.8" font-family="Times New Roman,serif" font-size="14.00">Cliente &#45;1450707019</text>
<text text-anchor="middle" x="1675.99" y="-865.8" font-family="Times New Roman,serif" font-size="14.00">Misha Clay </text>
<text text-anchor="middle" x="1675.99" y="-850.8" font-family="Times New Roman,serif" font-size="14.00"> Color: 3</text>
<text text-anchor="middle" x="1675.99" y="-835.8" font-family="Times New Roman,serif" font-size="14.00"> B&amp;W: 3</text>
</g>
<!-- Nodo521960438&#45;&gt;Nodo632587706 -->
<g id="edge38" class="edge">
<title>Nodo521960438&#45;&gt;Nodo632587706</title>
<path fill="none" stroke="black" d="M1574.53,-862C1582.97,-862 1591.58,-862 1600.04,-862"/>
<polygon fill="black" stroke="black" points="1600.26,-865.5 1610.26,-862 1600.26,-858.5 1600.26,-865.5"/>
</g>
<!-- Nodo726950788 -->
<g id="node42" class="node">
<title>Nodo726950788</title>
<polygon fill="none" stroke="black" points="1908.49,-896 1905.49,-900 1884.49,-900 1881.49,-896 1777.49,-896 1777.49,-828 1908.49,-828 1908.49,-896"/>
<text text-anchor="middle" x="1842.99" y="-880.8" font-family="Times New Roman,serif" font-size="14.00">Cliente &#45;1041894598</text>
<text text-anchor="middle" x="1842.99" y="-865.8" font-family="Times New Roman,serif" font-size="14.00">Misha Clay </text>
<text text-anchor="middle" x="1842.99" y="-850.8" font-family="Times New Roman,serif" font-size="14.00"> Color: 2</text>
<text text-anchor="middle" x="1842.99" y="-835.8" font-family="Times New Roman,serif" font-size="14.00"> B&amp;W: 5</text>
</g>
<!-- Nodo632587706&#45;&gt;Nodo726950788 -->
<g id="edge39" class="edge">
<title>Nodo632587706&#45;&gt;Nodo726950788</title>
<path fill="none" stroke="black" d="M1741.73,-862C1750.07,-862 1758.67,-862 1767.16,-862"/>
<polygon fill="black" stroke="black" points="1767.44,-865.5 1777.44,-862 1767.44,-858.5 1767.44,-865.5"/>
</g>
<!-- Nodo1567885839 -->
<g id="node43" class="node">
<title>Nodo1567885839</title>
<polygon fill="none" stroke="black" points="2075.49,-896 2072.49,-900 2051.49,-900 2048.49,-896 1944.49,-896 1944.49,-828 2075.49,-828 2075.49,-896"/>
<text text-anchor="middle" x="2009.99" y="-880.8" font-family="Times New Roman,serif" font-size="14.00">Cliente &#45;1777888432</text>
<text text-anchor="middle" x="2009.99" y="-865.8" font-family="Times New Roman,serif" font-size="14.00">Matt Clay </text>
<text text-anchor="middle" x="2009.99" y="-850.8" font-family="Times New Roman,serif" font-size="14.00"> Color: 5</text>
<text text-anchor="middle" x="2009.99" y="-835.8" font-family="Times New Roman,serif" font-size="14.00"> B&amp;W: 3</text>
</g>
<!-- Nodo726950788&#45;&gt;Nodo1567885839 -->
<g id="edge40" class="edge">
<title>Nodo726950788&#45;&gt;Nodo1567885839</title>
<path fill="none" stroke="black" d="M1908.73,-862C1917.07,-862 1925.67,-862 1934.16,-862"/>
<polygon fill="black" stroke="black" points="1934.44,-865.5 1944.44,-862 1934.44,-858.5 1934.44,-865.5"/>
</g>
<!-- Nodo398690014 -->
<g id="node44" class="node">
<title>Nodo398690014</title>
<polygon fill="none" stroke="black" points="2237.49,-896 2234.49,-900 2213.49,-900 2210.49,-896 2111.49,-896 2111.49,-828 2237.49,-828 2237.49,-896"/>
<text text-anchor="middle" x="2174.49" y="-880.8" font-family="Times New Roman,serif" font-size="14.00">Cliente 1420566259</text>
<text text-anchor="middle" x="2174.49" y="-865.8" font-family="Times New Roman,serif" font-size="14.00">Donald Clay </text>
<text text-anchor="middle" x="2174.49" y="-850.8" font-family="Times New Roman,serif" font-size="14.00"> Color: 3</text>
<text text-anchor="middle" x="2174.49" y="-835.8" font-family="Times New Roman,serif" font-size="14.00"> B&amp;W: 5</text>
</g>
<!-- Nodo1567885839&#45;&gt;Nodo398690014 -->
<g id="edge41" class="edge">
<title>Nodo1567885839&#45;&gt;Nodo398690014</title>
<path fill="none" stroke="black" d="M2075.68,-862C2084.05,-862 2092.66,-862 2101.15,-862"/>
<polygon fill="black" stroke="black" points="2101.4,-865.5 2111.4,-862 2101.4,-858.5 2101.4,-865.5"/>
</g>
<!-- Nodo1526298704 -->
<g id="node45" class="node">
<title>Nodo1526298704</title>
<polygon fill="none" stroke="black" points="2392.49,-896 2389.49,-900 2368.49,-900 2365.49,-896 2273.49,-896 2273.49,-828 2392.49,-828 2392.49,-896"/>
<text text-anchor="middle" x="2332.99" y="-880.8" font-family="Times New Roman,serif" font-size="14.00">Cliente 902449683</text>
<text text-anchor="middle" x="2332.99" y="-865.8" font-family="Times New Roman,serif" font-size="14.00">Poo Barrientos </text>
<text text-anchor="middle" x="2332.99" y="-850.8" font-family="Times New Roman,serif" font-size="14.00"> Color: 1</text>
<text text-anchor="middle" x="2332.99" y="-835.8" font-family="Times New Roman,serif" font-size="14.00"> B&amp;W: 4</text>
</g>
<!-- Nodo398690014&#45;&gt;Nodo1526298704 -->
<g id="edge42" class="edge">
<title>Nodo398690014&#45;&gt;Nodo1526298704</title>
<path fill="none" stroke="black" d="M2237.79,-862C2246.16,-862 2254.77,-862 2263.24,-862"/>
<polygon fill="black" stroke="black" points="2263.46,-865.5 2273.46,-862 2263.46,-858.5 2263.46,-865.5"/>
</g>
</g>
</svg>
