<?xml version="1.0" encoding="UTF-8" standalone="no"?>
<!DOCTYPE svg PUBLIC "-//W3C//DTD SVG 1.1//EN"
 "http://www.w3.org/Graphics/SVG/1.1/DTD/svg11.dtd">
<!-- Generated by graphviz version 2.46.0 (20210118.1747)
 -->
<!-- Title: G Pages: 1 -->
<svg width="476pt" height="622pt"
 viewBox="0.00 0.00 476.00 622.00" xmlns="http://www.w3.org/2000/svg" xmlns:xlink="http://www.w3.org/1999/xlink">
<g id="graph0" class="graph" transform="scale(1 1) rotate(0) translate(4 618)">
<title>G</title>
<polygon fill="white" stroke="transparent" points="-4,4 -4,-618 472,-618 472,4 -4,4"/>
<g id="clust1" class="cluster">
<title>cluster_ClientesTOP</title>
<polygon fill="#c1ffc1" stroke="black" points="8,-8 8,-606 460,-606 460,-8 8,-8"/>
<text text-anchor="middle" x="234" y="-590.8" font-family="Times New Roman,serif" font-size="14.00">TOP 5 CLIENTES CON MAYOR CANTIDAD DE IMAGENES A COLOR</text>
</g>
<!-- Nodo492079624 -->
<g id="node1" class="node">
<title>Nodo492079624</title>
<polygon fill="none" stroke="black" points="297.5,-575 294.5,-579 273.5,-579 270.5,-575 170.5,-575 170.5,-492 297.5,-492 297.5,-575"/>
<text text-anchor="middle" x="234" y="-559.8" font-family="Times New Roman,serif" font-size="14.00">Cliente 6</text>
<text text-anchor="middle" x="234" y="-544.8" font-family="Times New Roman,serif" font-size="14.00">Maggie Levine </text>
<text text-anchor="middle" x="234" y="-529.8" font-family="Times New Roman,serif" font-size="14.00"> Color: 4</text>
<text text-anchor="middle" x="234" y="-514.8" font-family="Times New Roman,serif" font-size="14.00"> B&amp;W: 2</text>
<text text-anchor="middle" x="234" y="-499.8" font-family="Times New Roman,serif" font-size="14.00">Pasos en espera: 20</text>
</g>
<!-- Nodo630074945 -->
<g id="node2" class="node">
<title>Nodo630074945</title>
<polygon fill="none" stroke="black" points="294,-456 291,-460 270,-460 267,-456 174,-456 174,-373 294,-373 294,-456"/>
<text text-anchor="middle" x="234" y="-440.8" font-family="Times New Roman,serif" font-size="14.00">Cliente 1</text>
<text text-anchor="middle" x="234" y="-425.8" font-family="Times New Roman,serif" font-size="14.00">Long Meyer </text>
<text text-anchor="middle" x="234" y="-410.8" font-family="Times New Roman,serif" font-size="14.00"> Color: 3</text>
<text text-anchor="middle" x="234" y="-395.8" font-family="Times New Roman,serif" font-size="14.00"> B&amp;W: 1</text>
<text text-anchor="middle" x="234" y="-380.8" font-family="Times New Roman,serif" font-size="14.00">Pasos en espera: 7</text>
</g>
<!-- Nodo492079624&#45;&gt;Nodo630074945 -->
<g id="edge1" class="edge">
<title>Nodo492079624&#45;&gt;Nodo630074945</title>
<path fill="none" stroke="black" d="M234,-491.91C234,-483.65 234,-474.86 234,-466.3"/>
<polygon fill="black" stroke="black" points="237.5,-466.02 234,-456.02 230.5,-466.02 237.5,-466.02"/>
</g>
<!-- Nodo64133603 -->
<g id="node3" class="node">
<title>Nodo64133603</title>
<polygon fill="none" stroke="black" points="294,-337 291,-341 270,-341 267,-337 174,-337 174,-254 294,-254 294,-337"/>
<text text-anchor="middle" x="234" y="-321.8" font-family="Times New Roman,serif" font-size="14.00">Cliente 3</text>
<text text-anchor="middle" x="234" y="-306.8" font-family="Times New Roman,serif" font-size="14.00">Ellison Hood </text>
<text text-anchor="middle" x="234" y="-291.8" font-family="Times New Roman,serif" font-size="14.00"> Color: 3</text>
<text text-anchor="middle" x="234" y="-276.8" font-family="Times New Roman,serif" font-size="14.00"> B&amp;W: 3</text>
<text text-anchor="middle" x="234" y="-261.8" font-family="Times New Roman,serif" font-size="14.00">Pasos en espera: 9</text>
</g>
<!-- Nodo630074945&#45;&gt;Nodo64133603 -->
<g id="edge2" class="edge">
<title>Nodo630074945&#45;&gt;Nodo64133603</title>
<path fill="none" stroke="black" d="M234,-372.91C234,-364.65 234,-355.86 234,-347.3"/>
<polygon fill="black" stroke="black" points="237.5,-347.02 234,-337.02 230.5,-347.02 237.5,-347.02"/>
</g>
<!-- Nodo1436901839 -->
<g id="node4" class="node">
<title>Nodo1436901839</title>
<polygon fill="none" stroke="black" points="297.5,-218 294.5,-222 273.5,-222 270.5,-218 170.5,-218 170.5,-135 297.5,-135 297.5,-218"/>
<text text-anchor="middle" x="234" y="-202.8" font-family="Times New Roman,serif" font-size="14.00">Cliente 5</text>
<text text-anchor="middle" x="234" y="-187.8" font-family="Times New Roman,serif" font-size="14.00">Moore Horton </text>
<text text-anchor="middle" x="234" y="-172.8" font-family="Times New Roman,serif" font-size="14.00"> Color: 2</text>
<text text-anchor="middle" x="234" y="-157.8" font-family="Times New Roman,serif" font-size="14.00"> B&amp;W: 4</text>
<text text-anchor="middle" x="234" y="-142.8" font-family="Times New Roman,serif" font-size="14.00">Pasos en espera: 12</text>
</g>
<!-- Nodo64133603&#45;&gt;Nodo1436901839 -->
<g id="edge3" class="edge">
<title>Nodo64133603&#45;&gt;Nodo1436901839</title>
<path fill="none" stroke="black" d="M234,-253.91C234,-245.65 234,-236.86 234,-228.3"/>
<polygon fill="black" stroke="black" points="237.5,-228.02 234,-218.02 230.5,-228.02 237.5,-228.02"/>
</g>
<!-- Nodo999522307 -->
<g id="node5" class="node">
<title>Nodo999522307</title>
<polygon fill="none" stroke="black" points="297.5,-99 294.5,-103 273.5,-103 270.5,-99 170.5,-99 170.5,-16 297.5,-16 297.5,-99"/>
<text text-anchor="middle" x="234" y="-83.8" font-family="Times New Roman,serif" font-size="14.00">Cliente 7</text>
<text text-anchor="middle" x="234" y="-68.8" font-family="Times New Roman,serif" font-size="14.00">Mabel Nicholson </text>
<text text-anchor="middle" x="234" y="-53.8" font-family="Times New Roman,serif" font-size="14.00"> Color: 2</text>
<text text-anchor="middle" x="234" y="-38.8" font-family="Times New Roman,serif" font-size="14.00"> B&amp;W: 2</text>
<text text-anchor="middle" x="234" y="-23.8" font-family="Times New Roman,serif" font-size="14.00">Pasos en espera: 13</text>
</g>
<!-- Nodo1436901839&#45;&gt;Nodo999522307 -->
<g id="edge4" class="edge">
<title>Nodo1436901839&#45;&gt;Nodo999522307</title>
<path fill="none" stroke="black" d="M234,-134.91C234,-126.65 234,-117.86 234,-109.3"/>
<polygon fill="black" stroke="black" points="237.5,-109.02 234,-99.02 230.5,-109.02 237.5,-109.02"/>
</g>
</g>
</svg>
