<?xml version="1.0" encoding="UTF-8" standalone="no"?>
<!DOCTYPE svg PUBLIC "-//W3C//DTD SVG 1.1//EN"
 "http://www.w3.org/Graphics/SVG/1.1/DTD/svg11.dtd">
<!-- Generated by graphviz version 2.46.0 (20210118.1747)
 -->
<!-- Title: G Pages: 1 -->
<svg width="552pt" height="622pt"
 viewBox="0.00 0.00 552.00 622.00" xmlns="http://www.w3.org/2000/svg" xmlns:xlink="http://www.w3.org/1999/xlink">
<g id="graph0" class="graph" transform="scale(1 1) rotate(0) translate(4 618)">
<title>G</title>
<polygon fill="white" stroke="transparent" points="-4,4 -4,-618 548,-618 548,4 -4,4"/>
<g id="clust1" class="cluster">
<title>cluster_ClientesTOP</title>
<polygon fill="#c1ffc1" stroke="black" points="8,-8 8,-606 536,-606 536,-8 8,-8"/>
<text text-anchor="middle" x="272" y="-590.8" font-family="Times New Roman,serif" font-size="14.00">TOP 5 CLIENTES CON MENOR CANTIDAD DE IMAGENES EN BlANCO Y NEGRO</text>
</g>
<!-- Nodo1866161430 -->
<g id="node1" class="node">
<title>Nodo1866161430</title>
<polygon fill="none" stroke="black" points="333,-575 330,-579 309,-579 306,-575 211,-575 211,-492 333,-492 333,-575"/>
<text text-anchor="middle" x="272" y="-559.8" font-family="Times New Roman,serif" font-size="14.00">Cliente 2</text>
<text text-anchor="middle" x="272" y="-544.8" font-family="Times New Roman,serif" font-size="14.00">Hudson Lancaster </text>
<text text-anchor="middle" x="272" y="-529.8" font-family="Times New Roman,serif" font-size="14.00"> Color: 1</text>
<text text-anchor="middle" x="272" y="-514.8" font-family="Times New Roman,serif" font-size="14.00"> B&amp;W: 1</text>
<text text-anchor="middle" x="272" y="-499.8" font-family="Times New Roman,serif" font-size="14.00">Pasos en espera: 2</text>
</g>
<!-- Nodo2024918163 -->
<g id="node2" class="node">
<title>Nodo2024918163</title>
<polygon fill="none" stroke="black" points="332,-456 329,-460 308,-460 305,-456 212,-456 212,-373 332,-373 332,-456"/>
<text text-anchor="middle" x="272" y="-440.8" font-family="Times New Roman,serif" font-size="14.00">Cliente 1</text>
<text text-anchor="middle" x="272" y="-425.8" font-family="Times New Roman,serif" font-size="14.00">Long Meyer </text>
<text text-anchor="middle" x="272" y="-410.8" font-family="Times New Roman,serif" font-size="14.00"> Color: 3</text>
<text text-anchor="middle" x="272" y="-395.8" font-family="Times New Roman,serif" font-size="14.00"> B&amp;W: 1</text>
<text text-anchor="middle" x="272" y="-380.8" font-family="Times New Roman,serif" font-size="14.00">Pasos en espera: 7</text>
</g>
<!-- Nodo1866161430&#45;&gt;Nodo2024918163 -->
<g id="edge1" class="edge">
<title>Nodo1866161430&#45;&gt;Nodo2024918163</title>
<path fill="none" stroke="black" d="M272,-491.91C272,-483.65 272,-474.86 272,-466.3"/>
<polygon fill="black" stroke="black" points="275.5,-466.02 272,-456.02 268.5,-466.02 275.5,-466.02"/>
</g>
<!-- Nodo107241811 -->
<g id="node3" class="node">
<title>Nodo107241811</title>
<polygon fill="none" stroke="black" points="335.5,-337 332.5,-341 311.5,-341 308.5,-337 208.5,-337 208.5,-254 335.5,-254 335.5,-337"/>
<text text-anchor="middle" x="272" y="-321.8" font-family="Times New Roman,serif" font-size="14.00">Cliente 7</text>
<text text-anchor="middle" x="272" y="-306.8" font-family="Times New Roman,serif" font-size="14.00">Mabel Nicholson </text>
<text text-anchor="middle" x="272" y="-291.8" font-family="Times New Roman,serif" font-size="14.00"> Color: 2</text>
<text text-anchor="middle" x="272" y="-276.8" font-family="Times New Roman,serif" font-size="14.00"> B&amp;W: 2</text>
<text text-anchor="middle" x="272" y="-261.8" font-family="Times New Roman,serif" font-size="14.00">Pasos en espera: 13</text>
</g>
<!-- Nodo2024918163&#45;&gt;Nodo107241811 -->
<g id="edge2" class="edge">
<title>Nodo2024918163&#45;&gt;Nodo107241811</title>
<path fill="none" stroke="black" d="M272,-372.91C272,-364.65 272,-355.86 272,-347.3"/>
<polygon fill="black" stroke="black" points="275.5,-347.02 272,-337.02 268.5,-347.02 275.5,-347.02"/>
</g>
<!-- Nodo558922244 -->
<g id="node4" class="node">
<title>Nodo558922244</title>
<polygon fill="none" stroke="black" points="335.5,-218 332.5,-222 311.5,-222 308.5,-218 208.5,-218 208.5,-135 335.5,-135 335.5,-218"/>
<text text-anchor="middle" x="272" y="-202.8" font-family="Times New Roman,serif" font-size="14.00">Cliente 6</text>
<text text-anchor="middle" x="272" y="-187.8" font-family="Times New Roman,serif" font-size="14.00">Maggie Levine </text>
<text text-anchor="middle" x="272" y="-172.8" font-family="Times New Roman,serif" font-size="14.00"> Color: 4</text>
<text text-anchor="middle" x="272" y="-157.8" font-family="Times New Roman,serif" font-size="14.00"> B&amp;W: 2</text>
<text text-anchor="middle" x="272" y="-142.8" font-family="Times New Roman,serif" font-size="14.00">Pasos en espera: 20</text>
</g>
<!-- Nodo107241811&#45;&gt;Nodo558922244 -->
<g id="edge3" class="edge">
<title>Nodo107241811&#45;&gt;Nodo558922244</title>
<path fill="none" stroke="black" d="M272,-253.91C272,-245.65 272,-236.86 272,-228.3"/>
<polygon fill="black" stroke="black" points="275.5,-228.02 272,-218.02 268.5,-228.02 275.5,-228.02"/>
</g>
<!-- Nodo339099861 -->
<g id="node5" class="node">
<title>Nodo339099861</title>
<polygon fill="none" stroke="black" points="332,-99 329,-103 308,-103 305,-99 212,-99 212,-16 332,-16 332,-99"/>
<text text-anchor="middle" x="272" y="-83.8" font-family="Times New Roman,serif" font-size="14.00">Cliente 3</text>
<text text-anchor="middle" x="272" y="-68.8" font-family="Times New Roman,serif" font-size="14.00">Ellison Hood </text>
<text text-anchor="middle" x="272" y="-53.8" font-family="Times New Roman,serif" font-size="14.00"> Color: 3</text>
<text text-anchor="middle" x="272" y="-38.8" font-family="Times New Roman,serif" font-size="14.00"> B&amp;W: 3</text>
<text text-anchor="middle" x="272" y="-23.8" font-family="Times New Roman,serif" font-size="14.00">Pasos en espera: 9</text>
</g>
<!-- Nodo558922244&#45;&gt;Nodo339099861 -->
<g id="edge4" class="edge">
<title>Nodo558922244&#45;&gt;Nodo339099861</title>
<path fill="none" stroke="black" d="M272,-134.91C272,-126.65 272,-117.86 272,-109.3"/>
<polygon fill="black" stroke="black" points="275.5,-109.02 272,-99.02 268.5,-109.02 275.5,-109.02"/>
</g>
</g>
</svg>
