<?xml version="1.0" encoding="UTF-8" standalone="no"?>
<!DOCTYPE svg PUBLIC "-//W3C//DTD SVG 1.1//EN"
 "http://www.w3.org/Graphics/SVG/1.1/DTD/svg11.dtd">
<!-- Generated by graphviz version 2.46.0 (20210118.1747)
 -->
<!-- Title: G Pages: 1 -->
<svg width="885pt" height="485pt"
 viewBox="0.00 0.00 885.27 485.00" xmlns="http://www.w3.org/2000/svg" xmlns:xlink="http://www.w3.org/1999/xlink">
<g id="graph0" class="graph" transform="scale(1 1) rotate(0) translate(4 481)">
<title>G</title>
<polygon fill="white" stroke="transparent" points="-4,4 -4,-481 881.27,-481 881.27,4 -4,4"/>
<g id="clust1" class="cluster">
<title>cluster_Clientes_Atendidos</title>
<polygon fill="#c1ffc1" stroke="black" points="9,-8 9,-83 217.05,-83 217.05,-8 9,-8"/>
<text text-anchor="middle" x="113.02" y="-67.8" font-family="Times New Roman,serif" font-size="14.00">LISTA CLIENTES ATENDIDOS</text>
</g>
<g id="clust2" class="cluster">
<title>cluster_clientes_espera</title>
<polygon fill="mintcream" stroke="black" points="0,-91 0,-166 225.05,-166 225.05,-91 0,-91"/>
<text text-anchor="middle" x="112.52" y="-150.8" font-family="Times New Roman,serif" font-size="14.00">LISTA DE CLIENTES EN ESPERA</text>
</g>
<g id="clust4" class="cluster">
<title>cluster_ventanillas</title>
<polygon fill="mintcream" stroke="black" points="65,-311 65,-386 869.27,-386 869.27,-311 65,-311"/>
<text text-anchor="middle" x="467.13" y="-370.8" font-family="Times New Roman,serif" font-size="14.00">LISTA VENTANILLA</text>
</g>
<g id="clust3" class="cluster">
<title>cluster_impresoras</title>
<polygon fill="mintcream" stroke="black" points="38.78,-174 38.78,-303 186.27,-303 186.27,-174 38.78,-174"/>
<text text-anchor="middle" x="112.52" y="-287.8" font-family="Times New Roman,serif" font-size="14.00">COLA IMPRESORAS</text>
</g>
<g id="clust5" class="cluster">
<title>cluster_recepcion</title>
<polygon fill="bisque" stroke="black" points="65,-394 65,-469 599.27,-469 599.27,-394 65,-394"/>
<text text-anchor="middle" x="332.13" y="-453.8" font-family="Times New Roman,serif" font-size="14.00">COLA RECEPCIÓN</text>
</g>
<!-- Start5 -->
<g id="node1" class="node">
<title>Start5</title>
<polygon fill="none" stroke="black" points="112.52,-52 72.98,-34 112.52,-16 152.07,-34 112.52,-52"/>
<polyline fill="none" stroke="black" points="83.9,-38.97 83.9,-29.03 "/>
<polyline fill="none" stroke="black" points="101.6,-20.97 123.45,-20.97 "/>
<polyline fill="none" stroke="black" points="141.15,-29.03 141.15,-38.97 "/>
<polyline fill="none" stroke="black" points="123.45,-47.03 101.6,-47.03 "/>
<text text-anchor="middle" x="112.52" y="-30.3" font-family="Times New Roman,serif" font-size="14.00">Start</text>
</g>
<!-- Start4 -->
<g id="node2" class="node">
<title>Start4</title>
<polygon fill="none" stroke="black" points="112.52,-135 72.98,-117 112.52,-99 152.07,-117 112.52,-135"/>
<polyline fill="none" stroke="black" points="83.9,-121.97 83.9,-112.03 "/>
<polyline fill="none" stroke="black" points="101.6,-103.97 123.45,-103.97 "/>
<polyline fill="none" stroke="black" points="141.15,-112.03 141.15,-121.97 "/>
<polyline fill="none" stroke="black" points="123.45,-130.03 101.6,-130.03 "/>
<text text-anchor="middle" x="112.52" y="-113.3" font-family="Times New Roman,serif" font-size="14.00">Start</text>
</g>
<!-- Start31 -->
<g id="node3" class="node">
<title>Start31</title>
<polygon fill="none" stroke="black" points="112.52,-272 52.53,-254 112.52,-236 172.52,-254 112.52,-272"/>
<polyline fill="none" stroke="black" points="64.03,-257.45 64.03,-250.55 "/>
<polyline fill="none" stroke="black" points="101.03,-239.45 124.02,-239.45 "/>
<polyline fill="none" stroke="black" points="161.02,-250.55 161.02,-257.45 "/>
<polyline fill="none" stroke="black" points="124.02,-268.55 101.03,-268.55 "/>
<text text-anchor="middle" x="112.52" y="-250.3" font-family="Times New Roman,serif" font-size="14.00">COLOR</text>
</g>
<!-- Start32 -->
<g id="node4" class="node">
<title>Start32</title>
<polygon fill="none" stroke="black" points="112.52,-218 66.61,-200 112.52,-182 158.44,-200 112.52,-218"/>
<polyline fill="none" stroke="black" points="77.78,-204.38 77.78,-195.62 "/>
<polyline fill="none" stroke="black" points="101.35,-186.38 123.7,-186.38 "/>
<polyline fill="none" stroke="black" points="147.27,-195.62 147.27,-204.38 "/>
<polyline fill="none" stroke="black" points="123.7,-213.62 101.35,-213.62 "/>
<text text-anchor="middle" x="112.52" y="-196.3" font-family="Times New Roman,serif" font-size="14.00">B&amp;W</text>
</g>
<!-- Start2 -->
<g id="node5" class="node">
<title>Start2</title>
<polygon fill="none" stroke="black" points="112.52,-355 72.98,-337 112.52,-319 152.07,-337 112.52,-355"/>
<polyline fill="none" stroke="black" points="83.9,-341.97 83.9,-332.03 "/>
<polyline fill="none" stroke="black" points="101.6,-323.97 123.45,-323.97 "/>
<polyline fill="none" stroke="black" points="141.15,-332.03 141.15,-341.97 "/>
<polyline fill="none" stroke="black" points="123.45,-350.03 101.6,-350.03 "/>
<text text-anchor="middle" x="112.52" y="-333.3" font-family="Times New Roman,serif" font-size="14.00">Start</text>
</g>
<!-- Nodo1783047508 -->
<g id="node6" class="node">
<title>Nodo1783047508</title>
<polygon fill="none" stroke="black" points="327.27,-355 273.27,-355 273.27,-319 327.27,-319 327.27,-355"/>
<text text-anchor="middle" x="300.27" y="-333.3" font-family="Times New Roman,serif" font-size="14.00">1</text>
</g>
<!-- Start2&#45;&gt;Nodo1783047508 -->
<g id="edge1" class="edge">
<title>Start2&#45;&gt;Nodo1783047508</title>
<path fill="none" stroke="black" d="M152.46,-337C185.05,-337 231.21,-337 263.02,-337"/>
<polygon fill="black" stroke="black" points="263.22,-340.5 273.22,-337 263.22,-333.5 263.22,-340.5"/>
</g>
<!-- Nodo2146608740 -->
<g id="node7" class="node">
<title>Nodo2146608740</title>
<polygon fill="none" stroke="black" points="449.27,-355 395.27,-355 395.27,-319 449.27,-319 449.27,-355"/>
<text text-anchor="middle" x="422.27" y="-333.3" font-family="Times New Roman,serif" font-size="14.00">2</text>
</g>
<!-- Nodo1783047508&#45;&gt;Nodo2146608740 -->
<g id="edge2" class="edge">
<title>Nodo1783047508&#45;&gt;Nodo2146608740</title>
<path fill="none" stroke="black" d="M327.31,-337C344.1,-337 366.17,-337 384.71,-337"/>
<polygon fill="black" stroke="black" points="384.87,-340.5 394.87,-337 384.87,-333.5 384.87,-340.5"/>
</g>
<!-- Nodo1381713434 -->
<g id="node8" class="node">
<title>Nodo1381713434</title>
<polygon fill="none" stroke="black" points="570.77,-355 516.77,-355 516.77,-319 570.77,-319 570.77,-355"/>
<text text-anchor="middle" x="543.77" y="-333.3" font-family="Times New Roman,serif" font-size="14.00">3</text>
</g>
<!-- Nodo2146608740&#45;&gt;Nodo1381713434 -->
<g id="edge3" class="edge">
<title>Nodo2146608740&#45;&gt;Nodo1381713434</title>
<path fill="none" stroke="black" d="M449.49,-337C466.23,-337 488.15,-337 506.53,-337"/>
<polygon fill="black" stroke="black" points="506.61,-340.5 516.61,-337 506.61,-333.5 506.61,-340.5"/>
</g>
<!-- Nodo1489092624 -->
<g id="node9" class="node">
<title>Nodo1489092624</title>
<polygon fill="none" stroke="black" points="681.27,-355 627.27,-355 627.27,-319 681.27,-319 681.27,-355"/>
<text text-anchor="middle" x="654.27" y="-333.3" font-family="Times New Roman,serif" font-size="14.00">4</text>
</g>
<!-- Nodo1381713434&#45;&gt;Nodo1489092624 -->
<g id="edge4" class="edge">
<title>Nodo1381713434&#45;&gt;Nodo1489092624</title>
<path fill="none" stroke="black" d="M571.03,-337C584.89,-337 602.11,-337 617.2,-337"/>
<polygon fill="black" stroke="black" points="617.25,-340.5 627.25,-337 617.25,-333.5 617.25,-340.5"/>
</g>
<!-- Nodo192881625 -->
<g id="node10" class="node">
<title>Nodo192881625</title>
<polygon fill="none" stroke="black" points="771.27,-355 717.27,-355 717.27,-319 771.27,-319 771.27,-355"/>
<text text-anchor="middle" x="744.27" y="-333.3" font-family="Times New Roman,serif" font-size="14.00">5</text>
</g>
<!-- Nodo1489092624&#45;&gt;Nodo192881625 -->
<g id="edge5" class="edge">
<title>Nodo1489092624&#45;&gt;Nodo192881625</title>
<path fill="none" stroke="black" d="M681.67,-337C689.66,-337 698.58,-337 707.09,-337"/>
<polygon fill="black" stroke="black" points="707.19,-340.5 717.19,-337 707.19,-333.5 707.19,-340.5"/>
</g>
<!-- Nodo1641313620 -->
<g id="node11" class="node">
<title>Nodo1641313620</title>
<polygon fill="none" stroke="black" points="861.27,-355 807.27,-355 807.27,-319 861.27,-319 861.27,-355"/>
<text text-anchor="middle" x="834.27" y="-333.3" font-family="Times New Roman,serif" font-size="14.00">6</text>
</g>
<!-- Nodo192881625&#45;&gt;Nodo1641313620 -->
<g id="edge6" class="edge">
<title>Nodo192881625&#45;&gt;Nodo1641313620</title>
<path fill="none" stroke="black" d="M771.67,-337C779.66,-337 788.58,-337 797.09,-337"/>
<polygon fill="black" stroke="black" points="797.19,-340.5 807.19,-337 797.19,-333.5 797.19,-340.5"/>
</g>
<!-- Start1 -->
<g id="node12" class="node">
<title>Start1</title>
<polygon fill="none" stroke="black" points="112.52,-438 72.98,-420 112.52,-402 152.07,-420 112.52,-438"/>
<polyline fill="none" stroke="black" points="83.9,-424.97 83.9,-415.03 "/>
<polyline fill="none" stroke="black" points="101.6,-406.97 123.45,-406.97 "/>
<polyline fill="none" stroke="black" points="141.15,-415.03 141.15,-424.97 "/>
<polyline fill="none" stroke="black" points="123.45,-433.03 101.6,-433.03 "/>
<text text-anchor="middle" x="112.52" y="-416.3" font-family="Times New Roman,serif" font-size="14.00">Start</text>
</g>
<!-- Nodo1782148126 -->
<g id="node13" class="node">
<title>Nodo1782148126</title>
<polygon fill="none" stroke="black" points="348.27,-438 252.27,-438 252.27,-402 348.27,-402 348.27,-438"/>
<text text-anchor="middle" x="300.27" y="-416.3" font-family="Times New Roman,serif" font-size="14.00">Andres Lopez</text>
</g>
<!-- Start1&#45;&gt;Nodo1782148126 -->
<g id="edge7" class="edge">
<title>Start1&#45;&gt;Nodo1782148126</title>
<path fill="none" stroke="black" d="M152.46,-420C178.44,-420 213.04,-420 242.12,-420"/>
<polygon fill="black" stroke="black" points="242.15,-423.5 252.15,-420 242.15,-416.5 242.15,-423.5"/>
</g>
<!-- Nodo477289012 -->
<g id="node14" class="node">
<title>Nodo477289012</title>
<polygon fill="none" stroke="black" points="460.27,-438 384.27,-438 384.27,-402 460.27,-402 460.27,-438"/>
<text text-anchor="middle" x="422.27" y="-416.3" font-family="Times New Roman,serif" font-size="14.00">Juan Perez</text>
</g>
<!-- Nodo1782148126&#45;&gt;Nodo477289012 -->
<g id="edge8" class="edge">
<title>Nodo1782148126&#45;&gt;Nodo477289012</title>
<path fill="none" stroke="black" d="M348.35,-420C356.75,-420 365.51,-420 373.92,-420"/>
<polygon fill="black" stroke="black" points="373.96,-423.5 383.96,-420 373.96,-416.5 373.96,-423.5"/>
</g>
<!-- Nodo1027591600 -->
<g id="node15" class="node">
<title>Nodo1027591600</title>
<polygon fill="none" stroke="black" points="591.27,-438 496.27,-438 496.27,-402 591.27,-402 591.27,-438"/>
<text text-anchor="middle" x="543.77" y="-416.3" font-family="Times New Roman,serif" font-size="14.00">Luiz Higueros</text>
</g>
<!-- Nodo477289012&#45;&gt;Nodo1027591600 -->
<g id="edge9" class="edge">
<title>Nodo477289012&#45;&gt;Nodo1027591600</title>
<path fill="none" stroke="black" d="M460.42,-420C468.5,-420 477.22,-420 485.87,-420"/>
<polygon fill="black" stroke="black" points="485.93,-423.5 495.93,-420 485.93,-416.5 485.93,-423.5"/>
</g>
</g>
</svg>
