<?xml version="1.0" encoding="UTF-8" standalone="no"?>
<!DOCTYPE svg PUBLIC "-//W3C//DTD SVG 1.1//EN"
 "http://www.w3.org/Graphics/SVG/1.1/DTD/svg11.dtd">
<!-- Generated by graphviz version 2.46.0 (20210118.1747)
 -->
<!-- Title: G Pages: 1 -->
<svg width="62pt" height="3572pt"
 viewBox="0.00 0.00 62.00 3572.00" xmlns="http://www.w3.org/2000/svg" xmlns:xlink="http://www.w3.org/1999/xlink">
<g id="graph0" class="graph" transform="scale(1 1) rotate(0) translate(4 3568)">
<title>G</title>
<polygon fill="white" stroke="transparent" points="-4,4 -4,-3568 58,-3568 58,4 -4,4"/>
<!-- Nodo683962652 -->
<g id="node1" class="node">
<title>Nodo683962652</title>
<polygon fill="none" stroke="black" points="54,-3564 0,-3564 0,-3528 54,-3528 54,-3564"/>
<text text-anchor="middle" x="27" y="-3542.3" font-family="Times New Roman,serif" font-size="14.00">0</text>
</g>
<!-- Nodo572191680 -->
<g id="node2" class="node">
<title>Nodo572191680</title>
<polygon fill="none" stroke="black" points="54,-3492 0,-3492 0,-3456 54,-3456 54,-3492"/>
<text text-anchor="middle" x="27" y="-3470.3" font-family="Times New Roman,serif" font-size="14.00">1</text>
</g>
<!-- Nodo683962652&#45;&gt;Nodo572191680 -->
<g id="edge1" class="edge">
<title>Nodo683962652&#45;&gt;Nodo572191680</title>
<path fill="none" stroke="black" d="M27,-3527.7C27,-3519.98 27,-3510.71 27,-3502.11"/>
<polygon fill="black" stroke="black" points="30.5,-3502.1 27,-3492.1 23.5,-3502.1 30.5,-3502.1"/>
</g>
<!-- Nodo231977479 -->
<g id="node3" class="node">
<title>Nodo231977479</title>
<polygon fill="none" stroke="black" points="54,-3420 0,-3420 0,-3384 54,-3384 54,-3420"/>
<text text-anchor="middle" x="27" y="-3398.3" font-family="Times New Roman,serif" font-size="14.00">2</text>
</g>
<!-- Nodo572191680&#45;&gt;Nodo231977479 -->
<g id="edge2" class="edge">
<title>Nodo572191680&#45;&gt;Nodo231977479</title>
<path fill="none" stroke="black" d="M27,-3455.7C27,-3447.98 27,-3438.71 27,-3430.11"/>
<polygon fill="black" stroke="black" points="30.5,-3430.1 27,-3420.1 23.5,-3430.1 30.5,-3430.1"/>
</g>
<!-- Nodo1427889191 -->
<g id="node4" class="node">
<title>Nodo1427889191</title>
<polygon fill="none" stroke="black" points="54,-3348 0,-3348 0,-3312 54,-3312 54,-3348"/>
<text text-anchor="middle" x="27" y="-3326.3" font-family="Times New Roman,serif" font-size="14.00">3</text>
</g>
<!-- Nodo231977479&#45;&gt;Nodo1427889191 -->
<g id="edge3" class="edge">
<title>Nodo231977479&#45;&gt;Nodo1427889191</title>
<path fill="none" stroke="black" d="M27,-3383.7C27,-3375.98 27,-3366.71 27,-3358.11"/>
<polygon fill="black" stroke="black" points="30.5,-3358.1 27,-3348.1 23.5,-3358.1 30.5,-3358.1"/>
</g>
<!-- Nodo93314457 -->
<g id="node5" class="node">
<title>Nodo93314457</title>
<polygon fill="none" stroke="black" points="54,-3276 0,-3276 0,-3240 54,-3240 54,-3276"/>
<text text-anchor="middle" x="27" y="-3254.3" font-family="Times New Roman,serif" font-size="14.00">4</text>
</g>
<!-- Nodo1427889191&#45;&gt;Nodo93314457 -->
<g id="edge4" class="edge">
<title>Nodo1427889191&#45;&gt;Nodo93314457</title>
<path fill="none" stroke="black" d="M27,-3311.7C27,-3303.98 27,-3294.71 27,-3286.11"/>
<polygon fill="black" stroke="black" points="30.5,-3286.1 27,-3276.1 23.5,-3286.1 30.5,-3286.1"/>
</g>
<!-- Nodo1796371666 -->
<g id="node6" class="node">
<title>Nodo1796371666</title>
<polygon fill="none" stroke="black" points="54,-3204 0,-3204 0,-3168 54,-3168 54,-3204"/>
<text text-anchor="middle" x="27" y="-3182.3" font-family="Times New Roman,serif" font-size="14.00">5</text>
</g>
<!-- Nodo93314457&#45;&gt;Nodo1796371666 -->
<g id="edge5" class="edge">
<title>Nodo93314457&#45;&gt;Nodo1796371666</title>
<path fill="none" stroke="black" d="M27,-3239.7C27,-3231.98 27,-3222.71 27,-3214.11"/>
<polygon fill="black" stroke="black" points="30.5,-3214.1 27,-3204.1 23.5,-3214.1 30.5,-3214.1"/>
</g>
<!-- Nodo2076287037 -->
<g id="node7" class="node">
<title>Nodo2076287037</title>
<polygon fill="none" stroke="black" points="54,-3132 0,-3132 0,-3096 54,-3096 54,-3132"/>
<text text-anchor="middle" x="27" y="-3110.3" font-family="Times New Roman,serif" font-size="14.00">6</text>
</g>
<!-- Nodo1796371666&#45;&gt;Nodo2076287037 -->
<g id="edge6" class="edge">
<title>Nodo1796371666&#45;&gt;Nodo2076287037</title>
<path fill="none" stroke="black" d="M27,-3167.7C27,-3159.98 27,-3150.71 27,-3142.11"/>
<polygon fill="black" stroke="black" points="30.5,-3142.1 27,-3132.1 23.5,-3142.1 30.5,-3142.1"/>
</g>
<!-- Nodo1890627974 -->
<g id="node8" class="node">
<title>Nodo1890627974</title>
<polygon fill="none" stroke="black" points="54,-3060 0,-3060 0,-3024 54,-3024 54,-3060"/>
<text text-anchor="middle" x="27" y="-3038.3" font-family="Times New Roman,serif" font-size="14.00">7</text>
</g>
<!-- Nodo2076287037&#45;&gt;Nodo1890627974 -->
<g id="edge7" class="edge">
<title>Nodo2076287037&#45;&gt;Nodo1890627974</title>
<path fill="none" stroke="black" d="M27,-3095.7C27,-3087.98 27,-3078.71 27,-3070.11"/>
<polygon fill="black" stroke="black" points="30.5,-3070.1 27,-3060.1 23.5,-3070.1 30.5,-3070.1"/>
</g>
<!-- Nodo195615004 -->
<g id="node9" class="node">
<title>Nodo195615004</title>
<polygon fill="none" stroke="black" points="54,-2988 0,-2988 0,-2952 54,-2952 54,-2988"/>
<text text-anchor="middle" x="27" y="-2966.3" font-family="Times New Roman,serif" font-size="14.00">8</text>
</g>
<!-- Nodo1890627974&#45;&gt;Nodo195615004 -->
<g id="edge8" class="edge">
<title>Nodo1890627974&#45;&gt;Nodo195615004</title>
<path fill="none" stroke="black" d="M27,-3023.7C27,-3015.98 27,-3006.71 27,-2998.11"/>
<polygon fill="black" stroke="black" points="30.5,-2998.1 27,-2988.1 23.5,-2998.1 30.5,-2998.1"/>
</g>
<!-- Nodo1935972447 -->
<g id="node10" class="node">
<title>Nodo1935972447</title>
<polygon fill="none" stroke="black" points="54,-2916 0,-2916 0,-2880 54,-2880 54,-2916"/>
<text text-anchor="middle" x="27" y="-2894.3" font-family="Times New Roman,serif" font-size="14.00">9</text>
</g>
<!-- Nodo195615004&#45;&gt;Nodo1935972447 -->
<g id="edge9" class="edge">
<title>Nodo195615004&#45;&gt;Nodo1935972447</title>
<path fill="none" stroke="black" d="M27,-2951.7C27,-2943.98 27,-2934.71 27,-2926.11"/>
<polygon fill="black" stroke="black" points="30.5,-2926.1 27,-2916.1 23.5,-2926.1 30.5,-2926.1"/>
</g>
<!-- Nodo97652294 -->
<g id="node11" class="node">
<title>Nodo97652294</title>
<polygon fill="none" stroke="black" points="54,-2844 0,-2844 0,-2808 54,-2808 54,-2844"/>
<text text-anchor="middle" x="27" y="-2822.3" font-family="Times New Roman,serif" font-size="14.00">10</text>
</g>
<!-- Nodo1935972447&#45;&gt;Nodo97652294 -->
<g id="edge10" class="edge">
<title>Nodo1935972447&#45;&gt;Nodo97652294</title>
<path fill="none" stroke="black" d="M27,-2879.7C27,-2871.98 27,-2862.71 27,-2854.11"/>
<polygon fill="black" stroke="black" points="30.5,-2854.1 27,-2844.1 23.5,-2854.1 30.5,-2854.1"/>
</g>
<!-- Nodo1889248251 -->
<g id="node12" class="node">
<title>Nodo1889248251</title>
<polygon fill="none" stroke="black" points="54,-2772 0,-2772 0,-2736 54,-2736 54,-2772"/>
<text text-anchor="middle" x="27" y="-2750.3" font-family="Times New Roman,serif" font-size="14.00">11</text>
</g>
<!-- Nodo97652294&#45;&gt;Nodo1889248251 -->
<g id="edge11" class="edge">
<title>Nodo97652294&#45;&gt;Nodo1889248251</title>
<path fill="none" stroke="black" d="M27,-2807.7C27,-2799.98 27,-2790.71 27,-2782.11"/>
<polygon fill="black" stroke="black" points="30.5,-2782.1 27,-2772.1 23.5,-2782.1 30.5,-2782.1"/>
</g>
<!-- Nodo1027007693 -->
<g id="node13" class="node">
<title>Nodo1027007693</title>
<polygon fill="none" stroke="black" points="54,-2700 0,-2700 0,-2664 54,-2664 54,-2700"/>
<text text-anchor="middle" x="27" y="-2678.3" font-family="Times New Roman,serif" font-size="14.00">12</text>
</g>
<!-- Nodo1889248251&#45;&gt;Nodo1027007693 -->
<g id="edge12" class="edge">
<title>Nodo1889248251&#45;&gt;Nodo1027007693</title>
<path fill="none" stroke="black" d="M27,-2735.7C27,-2727.98 27,-2718.71 27,-2710.11"/>
<polygon fill="black" stroke="black" points="30.5,-2710.1 27,-2700.1 23.5,-2710.1 30.5,-2710.1"/>
</g>
<!-- Nodo1783047508 -->
<g id="node14" class="node">
<title>Nodo1783047508</title>
<polygon fill="none" stroke="black" points="54,-2628 0,-2628 0,-2592 54,-2592 54,-2628"/>
<text text-anchor="middle" x="27" y="-2606.3" font-family="Times New Roman,serif" font-size="14.00">13</text>
</g>
<!-- Nodo1027007693&#45;&gt;Nodo1783047508 -->
<g id="edge13" class="edge">
<title>Nodo1027007693&#45;&gt;Nodo1783047508</title>
<path fill="none" stroke="black" d="M27,-2663.7C27,-2655.98 27,-2646.71 27,-2638.11"/>
<polygon fill="black" stroke="black" points="30.5,-2638.1 27,-2628.1 23.5,-2638.1 30.5,-2638.1"/>
</g>
<!-- Nodo2146608740 -->
<g id="node15" class="node">
<title>Nodo2146608740</title>
<polygon fill="none" stroke="black" points="54,-2556 0,-2556 0,-2520 54,-2520 54,-2556"/>
<text text-anchor="middle" x="27" y="-2534.3" font-family="Times New Roman,serif" font-size="14.00">14</text>
</g>
<!-- Nodo1783047508&#45;&gt;Nodo2146608740 -->
<g id="edge14" class="edge">
<title>Nodo1783047508&#45;&gt;Nodo2146608740</title>
<path fill="none" stroke="black" d="M27,-2591.7C27,-2583.98 27,-2574.71 27,-2566.11"/>
<polygon fill="black" stroke="black" points="30.5,-2566.1 27,-2556.1 23.5,-2566.1 30.5,-2566.1"/>
</g>
<!-- Nodo1381713434 -->
<g id="node16" class="node">
<title>Nodo1381713434</title>
<polygon fill="none" stroke="black" points="54,-2484 0,-2484 0,-2448 54,-2448 54,-2484"/>
<text text-anchor="middle" x="27" y="-2462.3" font-family="Times New Roman,serif" font-size="14.00">15</text>
</g>
<!-- Nodo2146608740&#45;&gt;Nodo1381713434 -->
<g id="edge15" class="edge">
<title>Nodo2146608740&#45;&gt;Nodo1381713434</title>
<path fill="none" stroke="black" d="M27,-2519.7C27,-2511.98 27,-2502.71 27,-2494.11"/>
<polygon fill="black" stroke="black" points="30.5,-2494.1 27,-2484.1 23.5,-2494.1 30.5,-2494.1"/>
</g>
<!-- Nodo1489092624 -->
<g id="node17" class="node">
<title>Nodo1489092624</title>
<polygon fill="none" stroke="black" points="54,-2412 0,-2412 0,-2376 54,-2376 54,-2412"/>
<text text-anchor="middle" x="27" y="-2390.3" font-family="Times New Roman,serif" font-size="14.00">16</text>
</g>
<!-- Nodo1381713434&#45;&gt;Nodo1489092624 -->
<g id="edge16" class="edge">
<title>Nodo1381713434&#45;&gt;Nodo1489092624</title>
<path fill="none" stroke="black" d="M27,-2447.7C27,-2439.98 27,-2430.71 27,-2422.11"/>
<polygon fill="black" stroke="black" points="30.5,-2422.1 27,-2412.1 23.5,-2422.1 30.5,-2422.1"/>
</g>
<!-- Nodo192881625 -->
<g id="node18" class="node">
<title>Nodo192881625</title>
<polygon fill="none" stroke="black" points="54,-2340 0,-2340 0,-2304 54,-2304 54,-2340"/>
<text text-anchor="middle" x="27" y="-2318.3" font-family="Times New Roman,serif" font-size="14.00">17</text>
</g>
<!-- Nodo1489092624&#45;&gt;Nodo192881625 -->
<g id="edge17" class="edge">
<title>Nodo1489092624&#45;&gt;Nodo192881625</title>
<path fill="none" stroke="black" d="M27,-2375.7C27,-2367.98 27,-2358.71 27,-2350.11"/>
<polygon fill="black" stroke="black" points="30.5,-2350.1 27,-2340.1 23.5,-2350.1 30.5,-2350.1"/>
</g>
<!-- Nodo1641313620 -->
<g id="node19" class="node">
<title>Nodo1641313620</title>
<polygon fill="none" stroke="black" points="54,-2268 0,-2268 0,-2232 54,-2232 54,-2268"/>
<text text-anchor="middle" x="27" y="-2246.3" font-family="Times New Roman,serif" font-size="14.00">18</text>
</g>
<!-- Nodo192881625&#45;&gt;Nodo1641313620 -->
<g id="edge18" class="edge">
<title>Nodo192881625&#45;&gt;Nodo1641313620</title>
<path fill="none" stroke="black" d="M27,-2303.7C27,-2295.98 27,-2286.71 27,-2278.11"/>
<polygon fill="black" stroke="black" points="30.5,-2278.1 27,-2268.1 23.5,-2278.1 30.5,-2278.1"/>
</g>
<!-- Nodo1773638882 -->
<g id="node20" class="node">
<title>Nodo1773638882</title>
<polygon fill="none" stroke="black" points="54,-2196 0,-2196 0,-2160 54,-2160 54,-2196"/>
<text text-anchor="middle" x="27" y="-2174.3" font-family="Times New Roman,serif" font-size="14.00">19</text>
</g>
<!-- Nodo1641313620&#45;&gt;Nodo1773638882 -->
<g id="edge19" class="edge">
<title>Nodo1641313620&#45;&gt;Nodo1773638882</title>
<path fill="none" stroke="black" d="M27,-2231.7C27,-2223.98 27,-2214.71 27,-2206.11"/>
<polygon fill="black" stroke="black" points="30.5,-2206.1 27,-2196.1 23.5,-2206.1 30.5,-2206.1"/>
</g>
<!-- Nodo1059063940 -->
<g id="node21" class="node">
<title>Nodo1059063940</title>
<polygon fill="none" stroke="black" points="54,-2124 0,-2124 0,-2088 54,-2088 54,-2124"/>
<text text-anchor="middle" x="27" y="-2102.3" font-family="Times New Roman,serif" font-size="14.00">20</text>
</g>
<!-- Nodo1773638882&#45;&gt;Nodo1059063940 -->
<g id="edge20" class="edge">
<title>Nodo1773638882&#45;&gt;Nodo1059063940</title>
<path fill="none" stroke="black" d="M27,-2159.7C27,-2151.98 27,-2142.71 27,-2134.11"/>
<polygon fill="black" stroke="black" points="30.5,-2134.1 27,-2124.1 23.5,-2134.1 30.5,-2134.1"/>
</g>
<!-- Nodo1295226194 -->
<g id="node22" class="node">
<title>Nodo1295226194</title>
<polygon fill="none" stroke="black" points="54,-2052 0,-2052 0,-2016 54,-2016 54,-2052"/>
<text text-anchor="middle" x="27" y="-2030.3" font-family="Times New Roman,serif" font-size="14.00">21</text>
</g>
<!-- Nodo1059063940&#45;&gt;Nodo1295226194 -->
<g id="edge21" class="edge">
<title>Nodo1059063940&#45;&gt;Nodo1295226194</title>
<path fill="none" stroke="black" d="M27,-2087.7C27,-2079.98 27,-2070.71 27,-2062.11"/>
<polygon fill="black" stroke="black" points="30.5,-2062.1 27,-2052.1 23.5,-2062.1 30.5,-2062.1"/>
</g>
<!-- Nodo252651381 -->
<g id="node23" class="node">
<title>Nodo252651381</title>
<polygon fill="none" stroke="black" points="54,-1980 0,-1980 0,-1944 54,-1944 54,-1980"/>
<text text-anchor="middle" x="27" y="-1958.3" font-family="Times New Roman,serif" font-size="14.00">22</text>
</g>
<!-- Nodo1295226194&#45;&gt;Nodo252651381 -->
<g id="edge22" class="edge">
<title>Nodo1295226194&#45;&gt;Nodo252651381</title>
<path fill="none" stroke="black" d="M27,-2015.7C27,-2007.98 27,-1998.71 27,-1990.11"/>
<polygon fill="black" stroke="black" points="30.5,-1990.1 27,-1980.1 23.5,-1990.1 30.5,-1990.1"/>
</g>
<!-- Nodo1514840818 -->
<g id="node24" class="node">
<title>Nodo1514840818</title>
<polygon fill="none" stroke="black" points="54,-1908 0,-1908 0,-1872 54,-1872 54,-1908"/>
<text text-anchor="middle" x="27" y="-1886.3" font-family="Times New Roman,serif" font-size="14.00">23</text>
</g>
<!-- Nodo252651381&#45;&gt;Nodo1514840818 -->
<g id="edge23" class="edge">
<title>Nodo252651381&#45;&gt;Nodo1514840818</title>
<path fill="none" stroke="black" d="M27,-1943.7C27,-1935.98 27,-1926.71 27,-1918.11"/>
<polygon fill="black" stroke="black" points="30.5,-1918.1 27,-1908.1 23.5,-1918.1 30.5,-1918.1"/>
</g>
<!-- Nodo1704064279 -->
<g id="node25" class="node">
<title>Nodo1704064279</title>
<polygon fill="none" stroke="black" points="54,-1836 0,-1836 0,-1800 54,-1800 54,-1836"/>
<text text-anchor="middle" x="27" y="-1814.3" font-family="Times New Roman,serif" font-size="14.00">24</text>
</g>
<!-- Nodo1514840818&#45;&gt;Nodo1704064279 -->
<g id="edge24" class="edge">
<title>Nodo1514840818&#45;&gt;Nodo1704064279</title>
<path fill="none" stroke="black" d="M27,-1871.7C27,-1863.98 27,-1854.71 27,-1846.11"/>
<polygon fill="black" stroke="black" points="30.5,-1846.1 27,-1836.1 23.5,-1846.1 30.5,-1846.1"/>
</g>
<!-- Nodo878274034 -->
<g id="node26" class="node">
<title>Nodo878274034</title>
<polygon fill="none" stroke="black" points="54,-1764 0,-1764 0,-1728 54,-1728 54,-1764"/>
<text text-anchor="middle" x="27" y="-1742.3" font-family="Times New Roman,serif" font-size="14.00">25</text>
</g>
<!-- Nodo1704064279&#45;&gt;Nodo878274034 -->
<g id="edge25" class="edge">
<title>Nodo1704064279&#45;&gt;Nodo878274034</title>
<path fill="none" stroke="black" d="M27,-1799.7C27,-1791.98 27,-1782.71 27,-1774.11"/>
<polygon fill="black" stroke="black" points="30.5,-1774.1 27,-1764.1 23.5,-1774.1 30.5,-1774.1"/>
</g>
<!-- Nodo1117509763 -->
<g id="node27" class="node">
<title>Nodo1117509763</title>
<polygon fill="none" stroke="black" points="54,-1692 0,-1692 0,-1656 54,-1656 54,-1692"/>
<text text-anchor="middle" x="27" y="-1670.3" font-family="Times New Roman,serif" font-size="14.00">26</text>
</g>
<!-- Nodo878274034&#45;&gt;Nodo1117509763 -->
<g id="edge26" class="edge">
<title>Nodo878274034&#45;&gt;Nodo1117509763</title>
<path fill="none" stroke="black" d="M27,-1727.7C27,-1719.98 27,-1710.71 27,-1702.11"/>
<polygon fill="black" stroke="black" points="30.5,-1702.1 27,-1692.1 23.5,-1702.1 30.5,-1702.1"/>
</g>
<!-- Nodo1296674576 -->
<g id="node28" class="node">
<title>Nodo1296674576</title>
<polygon fill="none" stroke="black" points="54,-1620 0,-1620 0,-1584 54,-1584 54,-1620"/>
<text text-anchor="middle" x="27" y="-1598.3" font-family="Times New Roman,serif" font-size="14.00">27</text>
</g>
<!-- Nodo1117509763&#45;&gt;Nodo1296674576 -->
<g id="edge27" class="edge">
<title>Nodo1117509763&#45;&gt;Nodo1296674576</title>
<path fill="none" stroke="black" d="M27,-1655.7C27,-1647.98 27,-1638.71 27,-1630.11"/>
<polygon fill="black" stroke="black" points="30.5,-1630.1 27,-1620.1 23.5,-1630.1 30.5,-1630.1"/>
</g>
<!-- Nodo664457955 -->
<g id="node29" class="node">
<title>Nodo664457955</title>
<polygon fill="none" stroke="black" points="54,-1548 0,-1548 0,-1512 54,-1512 54,-1548"/>
<text text-anchor="middle" x="27" y="-1526.3" font-family="Times New Roman,serif" font-size="14.00">28</text>
</g>
<!-- Nodo1296674576&#45;&gt;Nodo664457955 -->
<g id="edge28" class="edge">
<title>Nodo1296674576&#45;&gt;Nodo664457955</title>
<path fill="none" stroke="black" d="M27,-1583.7C27,-1575.98 27,-1566.71 27,-1558.11"/>
<polygon fill="black" stroke="black" points="30.5,-1558.1 27,-1548.1 23.5,-1558.1 30.5,-1558.1"/>
</g>
<!-- Nodo1477657879 -->
<g id="node30" class="node">
<title>Nodo1477657879</title>
<polygon fill="none" stroke="black" points="54,-1476 0,-1476 0,-1440 54,-1440 54,-1476"/>
<text text-anchor="middle" x="27" y="-1454.3" font-family="Times New Roman,serif" font-size="14.00">29</text>
</g>
<!-- Nodo664457955&#45;&gt;Nodo1477657879 -->
<g id="edge29" class="edge">
<title>Nodo664457955&#45;&gt;Nodo1477657879</title>
<path fill="none" stroke="black" d="M27,-1511.7C27,-1503.98 27,-1494.71 27,-1486.11"/>
<polygon fill="black" stroke="black" points="30.5,-1486.1 27,-1476.1 23.5,-1486.1 30.5,-1486.1"/>
</g>
<!-- Nodo1146147158 -->
<g id="node31" class="node">
<title>Nodo1146147158</title>
<polygon fill="none" stroke="black" points="54,-1404 0,-1404 0,-1368 54,-1368 54,-1404"/>
<text text-anchor="middle" x="27" y="-1382.3" font-family="Times New Roman,serif" font-size="14.00">30</text>
</g>
<!-- Nodo1477657879&#45;&gt;Nodo1146147158 -->
<g id="edge30" class="edge">
<title>Nodo1477657879&#45;&gt;Nodo1146147158</title>
<path fill="none" stroke="black" d="M27,-1439.7C27,-1431.98 27,-1422.71 27,-1414.11"/>
<polygon fill="black" stroke="black" points="30.5,-1414.1 27,-1404.1 23.5,-1414.1 30.5,-1414.1"/>
</g>
<!-- Nodo1147258851 -->
<g id="node32" class="node">
<title>Nodo1147258851</title>
<polygon fill="none" stroke="black" points="54,-1332 0,-1332 0,-1296 54,-1296 54,-1332"/>
<text text-anchor="middle" x="27" y="-1310.3" font-family="Times New Roman,serif" font-size="14.00">31</text>
</g>
<!-- Nodo1146147158&#45;&gt;Nodo1147258851 -->
<g id="edge31" class="edge">
<title>Nodo1146147158&#45;&gt;Nodo1147258851</title>
<path fill="none" stroke="black" d="M27,-1367.7C27,-1359.98 27,-1350.71 27,-1342.11"/>
<polygon fill="black" stroke="black" points="30.5,-1342.1 27,-1332.1 23.5,-1342.1 30.5,-1342.1"/>
</g>
<!-- Nodo891095110 -->
<g id="node33" class="node">
<title>Nodo891095110</title>
<polygon fill="none" stroke="black" points="54,-1260 0,-1260 0,-1224 54,-1224 54,-1260"/>
<text text-anchor="middle" x="27" y="-1238.3" font-family="Times New Roman,serif" font-size="14.00">32</text>
</g>
<!-- Nodo1147258851&#45;&gt;Nodo891095110 -->
<g id="edge32" class="edge">
<title>Nodo1147258851&#45;&gt;Nodo891095110</title>
<path fill="none" stroke="black" d="M27,-1295.7C27,-1287.98 27,-1278.71 27,-1270.11"/>
<polygon fill="black" stroke="black" points="30.5,-1270.1 27,-1260.1 23.5,-1270.1 30.5,-1270.1"/>
</g>
<!-- Nodo2011482127 -->
<g id="node34" class="node">
<title>Nodo2011482127</title>
<polygon fill="none" stroke="black" points="54,-1188 0,-1188 0,-1152 54,-1152 54,-1188"/>
<text text-anchor="middle" x="27" y="-1166.3" font-family="Times New Roman,serif" font-size="14.00">33</text>
</g>
<!-- Nodo891095110&#45;&gt;Nodo2011482127 -->
<g id="edge33" class="edge">
<title>Nodo891095110&#45;&gt;Nodo2011482127</title>
<path fill="none" stroke="black" d="M27,-1223.7C27,-1215.98 27,-1206.71 27,-1198.11"/>
<polygon fill="black" stroke="black" points="30.5,-1198.1 27,-1188.1 23.5,-1198.1 30.5,-1198.1"/>
</g>
<!-- Nodo905735620 -->
<g id="node35" class="node">
<title>Nodo905735620</title>
<polygon fill="none" stroke="black" points="54,-1116 0,-1116 0,-1080 54,-1080 54,-1116"/>
<text text-anchor="middle" x="27" y="-1094.3" font-family="Times New Roman,serif" font-size="14.00">34</text>
</g>
<!-- Nodo2011482127&#45;&gt;Nodo905735620 -->
<g id="edge34" class="edge">
<title>Nodo2011482127&#45;&gt;Nodo905735620</title>
<path fill="none" stroke="black" d="M27,-1151.7C27,-1143.98 27,-1134.71 27,-1126.11"/>
<polygon fill="black" stroke="black" points="30.5,-1126.1 27,-1116.1 23.5,-1126.1 30.5,-1126.1"/>
</g>
<!-- Nodo2145970759 -->
<g id="node36" class="node">
<title>Nodo2145970759</title>
<polygon fill="none" stroke="black" points="54,-1044 0,-1044 0,-1008 54,-1008 54,-1044"/>
<text text-anchor="middle" x="27" y="-1022.3" font-family="Times New Roman,serif" font-size="14.00">35</text>
</g>
<!-- Nodo905735620&#45;&gt;Nodo2145970759 -->
<g id="edge35" class="edge">
<title>Nodo905735620&#45;&gt;Nodo2145970759</title>
<path fill="none" stroke="black" d="M27,-1079.7C27,-1071.98 27,-1062.71 27,-1054.11"/>
<polygon fill="black" stroke="black" points="30.5,-1054.1 27,-1044.1 23.5,-1054.1 30.5,-1054.1"/>
</g>
<!-- Nodo577405636 -->
<g id="node37" class="node">
<title>Nodo577405636</title>
<polygon fill="none" stroke="black" points="54,-972 0,-972 0,-936 54,-936 54,-972"/>
<text text-anchor="middle" x="27" y="-950.3" font-family="Times New Roman,serif" font-size="14.00">36</text>
</g>
<!-- Nodo2145970759&#45;&gt;Nodo577405636 -->
<g id="edge36" class="edge">
<title>Nodo2145970759&#45;&gt;Nodo577405636</title>
<path fill="none" stroke="black" d="M27,-1007.7C27,-999.98 27,-990.71 27,-982.11"/>
<polygon fill="black" stroke="black" points="30.5,-982.1 27,-972.1 23.5,-982.1 30.5,-982.1"/>
</g>
<!-- Nodo1931444790 -->
<g id="node38" class="node">
<title>Nodo1931444790</title>
<polygon fill="none" stroke="black" points="54,-900 0,-900 0,-864 54,-864 54,-900"/>
<text text-anchor="middle" x="27" y="-878.3" font-family="Times New Roman,serif" font-size="14.00">37</text>
</g>
<!-- Nodo577405636&#45;&gt;Nodo1931444790 -->
<g id="edge37" class="edge">
<title>Nodo577405636&#45;&gt;Nodo1931444790</title>
<path fill="none" stroke="black" d="M27,-935.7C27,-927.98 27,-918.71 27,-910.11"/>
<polygon fill="black" stroke="black" points="30.5,-910.1 27,-900.1 23.5,-910.1 30.5,-910.1"/>
</g>
<!-- Nodo626742236 -->
<g id="node39" class="node">
<title>Nodo626742236</title>
<polygon fill="none" stroke="black" points="54,-828 0,-828 0,-792 54,-792 54,-828"/>
<text text-anchor="middle" x="27" y="-806.3" font-family="Times New Roman,serif" font-size="14.00">38</text>
</g>
<!-- Nodo1931444790&#45;&gt;Nodo626742236 -->
<g id="edge38" class="edge">
<title>Nodo1931444790&#45;&gt;Nodo626742236</title>
<path fill="none" stroke="black" d="M27,-863.7C27,-855.98 27,-846.71 27,-838.11"/>
<polygon fill="black" stroke="black" points="30.5,-838.1 27,-828.1 23.5,-838.1 30.5,-838.1"/>
</g>
<!-- Nodo500772834 -->
<g id="node40" class="node">
<title>Nodo500772834</title>
<polygon fill="none" stroke="black" points="54,-756 0,-756 0,-720 54,-720 54,-756"/>
<text text-anchor="middle" x="27" y="-734.3" font-family="Times New Roman,serif" font-size="14.00">39</text>
</g>
<!-- Nodo626742236&#45;&gt;Nodo500772834 -->
<g id="edge39" class="edge">
<title>Nodo626742236&#45;&gt;Nodo500772834</title>
<path fill="none" stroke="black" d="M27,-791.7C27,-783.98 27,-774.71 27,-766.11"/>
<polygon fill="black" stroke="black" points="30.5,-766.1 27,-756.1 23.5,-766.1 30.5,-766.1"/>
</g>
<!-- Nodo1800659519 -->
<g id="node41" class="node">
<title>Nodo1800659519</title>
<polygon fill="none" stroke="black" points="54,-684 0,-684 0,-648 54,-648 54,-684"/>
<text text-anchor="middle" x="27" y="-662.3" font-family="Times New Roman,serif" font-size="14.00">40</text>
</g>
<!-- Nodo500772834&#45;&gt;Nodo1800659519 -->
<g id="edge40" class="edge">
<title>Nodo500772834&#45;&gt;Nodo1800659519</title>
<path fill="none" stroke="black" d="M27,-719.7C27,-711.98 27,-702.71 27,-694.11"/>
<polygon fill="black" stroke="black" points="30.5,-694.1 27,-684.1 23.5,-694.1 30.5,-694.1"/>
</g>
<!-- Nodo1691538257 -->
<g id="node42" class="node">
<title>Nodo1691538257</title>
<polygon fill="none" stroke="black" points="54,-612 0,-612 0,-576 54,-576 54,-612"/>
<text text-anchor="middle" x="27" y="-590.3" font-family="Times New Roman,serif" font-size="14.00">41</text>
</g>
<!-- Nodo1800659519&#45;&gt;Nodo1691538257 -->
<g id="edge41" class="edge">
<title>Nodo1800659519&#45;&gt;Nodo1691538257</title>
<path fill="none" stroke="black" d="M27,-647.7C27,-639.98 27,-630.71 27,-622.11"/>
<polygon fill="black" stroke="black" points="30.5,-622.1 27,-612.1 23.5,-622.1 30.5,-622.1"/>
</g>
<!-- Nodo459848100 -->
<g id="node43" class="node">
<title>Nodo459848100</title>
<polygon fill="none" stroke="black" points="54,-540 0,-540 0,-504 54,-504 54,-540"/>
<text text-anchor="middle" x="27" y="-518.3" font-family="Times New Roman,serif" font-size="14.00">42</text>
</g>
<!-- Nodo1691538257&#45;&gt;Nodo459848100 -->
<g id="edge42" class="edge">
<title>Nodo1691538257&#45;&gt;Nodo459848100</title>
<path fill="none" stroke="black" d="M27,-575.7C27,-567.98 27,-558.71 27,-550.11"/>
<polygon fill="black" stroke="black" points="30.5,-550.1 27,-540.1 23.5,-550.1 30.5,-550.1"/>
</g>
<!-- Nodo1335505684 -->
<g id="node44" class="node">
<title>Nodo1335505684</title>
<polygon fill="none" stroke="black" points="54,-468 0,-468 0,-432 54,-432 54,-468"/>
<text text-anchor="middle" x="27" y="-446.3" font-family="Times New Roman,serif" font-size="14.00">43</text>
</g>
<!-- Nodo459848100&#45;&gt;Nodo1335505684 -->
<g id="edge43" class="edge">
<title>Nodo459848100&#45;&gt;Nodo1335505684</title>
<path fill="none" stroke="black" d="M27,-503.7C27,-495.98 27,-486.71 27,-478.11"/>
<polygon fill="black" stroke="black" points="30.5,-478.1 27,-468.1 23.5,-478.1 30.5,-478.1"/>
</g>
<!-- Nodo992768706 -->
<g id="node45" class="node">
<title>Nodo992768706</title>
<polygon fill="none" stroke="black" points="54,-396 0,-396 0,-360 54,-360 54,-396"/>
<text text-anchor="middle" x="27" y="-374.3" font-family="Times New Roman,serif" font-size="14.00">44</text>
</g>
<!-- Nodo1335505684&#45;&gt;Nodo992768706 -->
<g id="edge44" class="edge">
<title>Nodo1335505684&#45;&gt;Nodo992768706</title>
<path fill="none" stroke="black" d="M27,-431.7C27,-423.98 27,-414.71 27,-406.11"/>
<polygon fill="black" stroke="black" points="30.5,-406.1 27,-396.1 23.5,-406.1 30.5,-406.1"/>
</g>
<!-- Nodo1226204845 -->
<g id="node46" class="node">
<title>Nodo1226204845</title>
<polygon fill="none" stroke="black" points="54,-324 0,-324 0,-288 54,-288 54,-324"/>
<text text-anchor="middle" x="27" y="-302.3" font-family="Times New Roman,serif" font-size="14.00">45</text>
</g>
<!-- Nodo992768706&#45;&gt;Nodo1226204845 -->
<g id="edge45" class="edge">
<title>Nodo992768706&#45;&gt;Nodo1226204845</title>
<path fill="none" stroke="black" d="M27,-359.7C27,-351.98 27,-342.71 27,-334.11"/>
<polygon fill="black" stroke="black" points="30.5,-334.1 27,-324.1 23.5,-334.1 30.5,-334.1"/>
</g>
<!-- Nodo393040818 -->
<g id="node47" class="node">
<title>Nodo393040818</title>
<polygon fill="none" stroke="black" points="54,-252 0,-252 0,-216 54,-216 54,-252"/>
<text text-anchor="middle" x="27" y="-230.3" font-family="Times New Roman,serif" font-size="14.00">46</text>
</g>
<!-- Nodo1226204845&#45;&gt;Nodo393040818 -->
<g id="edge46" class="edge">
<title>Nodo1226204845&#45;&gt;Nodo393040818</title>
<path fill="none" stroke="black" d="M27,-287.7C27,-279.98 27,-270.71 27,-262.11"/>
<polygon fill="black" stroke="black" points="30.5,-262.1 27,-252.1 23.5,-262.1 30.5,-262.1"/>
</g>
<!-- Nodo158453976 -->
<g id="node48" class="node">
<title>Nodo158453976</title>
<polygon fill="none" stroke="black" points="54,-180 0,-180 0,-144 54,-144 54,-180"/>
<text text-anchor="middle" x="27" y="-158.3" font-family="Times New Roman,serif" font-size="14.00">47</text>
</g>
<!-- Nodo393040818&#45;&gt;Nodo158453976 -->
<g id="edge47" class="edge">
<title>Nodo393040818&#45;&gt;Nodo158453976</title>
<path fill="none" stroke="black" d="M27,-215.7C27,-207.98 27,-198.71 27,-190.11"/>
<polygon fill="black" stroke="black" points="30.5,-190.1 27,-180.1 23.5,-190.1 30.5,-190.1"/>
</g>
<!-- Nodo1368594774 -->
<g id="node49" class="node">
<title>Nodo1368594774</title>
<polygon fill="none" stroke="black" points="54,-108 0,-108 0,-72 54,-72 54,-108"/>
<text text-anchor="middle" x="27" y="-86.3" font-family="Times New Roman,serif" font-size="14.00">48</text>
</g>
<!-- Nodo158453976&#45;&gt;Nodo1368594774 -->
<g id="edge48" class="edge">
<title>Nodo158453976&#45;&gt;Nodo1368594774</title>
<path fill="none" stroke="black" d="M27,-143.7C27,-135.98 27,-126.71 27,-118.11"/>
<polygon fill="black" stroke="black" points="30.5,-118.1 27,-108.1 23.5,-118.1 30.5,-118.1"/>
</g>
<!-- Nodo726281927 -->
<g id="node50" class="node">
<title>Nodo726281927</title>
<polygon fill="none" stroke="black" points="54,-36 0,-36 0,0 54,0 54,-36"/>
<text text-anchor="middle" x="27" y="-14.3" font-family="Times New Roman,serif" font-size="14.00">49</text>
</g>
<!-- Nodo1368594774&#45;&gt;Nodo726281927 -->
<g id="edge49" class="edge">
<title>Nodo1368594774&#45;&gt;Nodo726281927</title>
<path fill="none" stroke="black" d="M27,-71.7C27,-63.98 27,-54.71 27,-46.11"/>
<polygon fill="black" stroke="black" points="30.5,-46.1 27,-36.1 23.5,-46.1 30.5,-46.1"/>
</g>
</g>
</svg>
