<?xml version="1.0" encoding="UTF-8" standalone="no"?>
<!DOCTYPE svg PUBLIC "-//W3C//DTD SVG 1.1//EN"
 "http://www.w3.org/Graphics/SVG/1.1/DTD/svg11.dtd">
<!-- Generated by graphviz version 2.46.0 (20210118.1747)
 -->
<!-- Title: G Pages: 1 -->
<svg width="476pt" height="503pt"
 viewBox="0.00 0.00 476.00 503.00" xmlns="http://www.w3.org/2000/svg" xmlns:xlink="http://www.w3.org/1999/xlink">
<g id="graph0" class="graph" transform="scale(1 1) rotate(0) translate(4 499)">
<title>G</title>
<polygon fill="white" stroke="transparent" points="-4,4 -4,-499 472,-499 472,4 -4,4"/>
<g id="clust1" class="cluster">
<title>cluster_ClientesTOP</title>
<polygon fill="#c1ffc1" stroke="black" points="8,-8 8,-487 460,-487 460,-8 8,-8"/>
<text text-anchor="middle" x="234" y="-471.8" font-family="Times New Roman,serif" font-size="14.00">TOP 5 CLIENTES CON MAYOR CANTIDAD DE IMAGENES A COLOR</text>
</g>
<!-- Nodo1699113578 -->
<g id="node1" class="node">
<title>Nodo1699113578</title>
<polygon fill="none" stroke="black" points="294,-456 291,-460 270,-460 267,-456 174,-456 174,-373 294,-373 294,-456"/>
<text text-anchor="middle" x="234" y="-440.8" font-family="Times New Roman,serif" font-size="14.00">Cliente 2</text>
<text text-anchor="middle" x="234" y="-425.8" font-family="Times New Roman,serif" font-size="14.00">Juan Perez </text>
<text text-anchor="middle" x="234" y="-410.8" font-family="Times New Roman,serif" font-size="14.00"> Color: 3</text>
<text text-anchor="middle" x="234" y="-395.8" font-family="Times New Roman,serif" font-size="14.00"> B&amp;W: 0</text>
<text text-anchor="middle" x="234" y="-380.8" font-family="Times New Roman,serif" font-size="14.00">Pasos en espera: 6</text>
</g>
<!-- Nodo1306324352 -->
<g id="node2" class="node">
<title>Nodo1306324352</title>
<polygon fill="none" stroke="black" points="297.5,-337 294.5,-341 273.5,-341 270.5,-337 170.5,-337 170.5,-254 297.5,-254 297.5,-337"/>
<text text-anchor="middle" x="234" y="-321.8" font-family="Times New Roman,serif" font-size="14.00">Cliente 1</text>
<text text-anchor="middle" x="234" y="-306.8" font-family="Times New Roman,serif" font-size="14.00">Andres Lopez </text>
<text text-anchor="middle" x="234" y="-291.8" font-family="Times New Roman,serif" font-size="14.00"> Color: 3</text>
<text text-anchor="middle" x="234" y="-276.8" font-family="Times New Roman,serif" font-size="14.00"> B&amp;W: 2</text>
<text text-anchor="middle" x="234" y="-261.8" font-family="Times New Roman,serif" font-size="14.00">Pasos en espera: 11</text>
</g>
<!-- Nodo1699113578&#45;&gt;Nodo1306324352 -->
<g id="edge1" class="edge">
<title>Nodo1699113578&#45;&gt;Nodo1306324352</title>
<path fill="none" stroke="black" d="M234,-372.91C234,-364.65 234,-355.86 234,-347.3"/>
<polygon fill="black" stroke="black" points="237.5,-347.02 234,-337.02 230.5,-347.02 237.5,-347.02"/>
</g>
<!-- Nodo355790875 -->
<g id="node3" class="node">
<title>Nodo355790875</title>
<polygon fill="none" stroke="black" points="297.5,-218 294.5,-222 273.5,-222 270.5,-218 170.5,-218 170.5,-135 297.5,-135 297.5,-218"/>
<text text-anchor="middle" x="234" y="-202.8" font-family="Times New Roman,serif" font-size="14.00">Cliente 3</text>
<text text-anchor="middle" x="234" y="-187.8" font-family="Times New Roman,serif" font-size="14.00">Luiz Higueros </text>
<text text-anchor="middle" x="234" y="-172.8" font-family="Times New Roman,serif" font-size="14.00"> Color: 2</text>
<text text-anchor="middle" x="234" y="-157.8" font-family="Times New Roman,serif" font-size="14.00"> B&amp;W: 1</text>
<text text-anchor="middle" x="234" y="-142.8" font-family="Times New Roman,serif" font-size="14.00">Pasos en espera: 15</text>
</g>
<!-- Nodo1306324352&#45;&gt;Nodo355790875 -->
<g id="edge2" class="edge">
<title>Nodo1306324352&#45;&gt;Nodo355790875</title>
<path fill="none" stroke="black" d="M234,-253.91C234,-245.65 234,-236.86 234,-228.3"/>
<polygon fill="black" stroke="black" points="237.5,-228.02 234,-218.02 230.5,-228.02 237.5,-228.02"/>
</g>
<!-- Nodo2028017635 -->
<g id="node4" class="node">
<title>Nodo2028017635</title>
<polygon fill="none" stroke="black" points="297.5,-99 294.5,-103 273.5,-103 270.5,-99 170.5,-99 170.5,-16 297.5,-16 297.5,-99"/>
<text text-anchor="middle" x="234" y="-83.8" font-family="Times New Roman,serif" font-size="14.00">Cliente 1415507480</text>
<text text-anchor="middle" x="234" y="-68.8" font-family="Times New Roman,serif" font-size="14.00">Ben 10 Smith </text>
<text text-anchor="middle" x="234" y="-53.8" font-family="Times New Roman,serif" font-size="14.00"> Color: 2</text>
<text text-anchor="middle" x="234" y="-38.8" font-family="Times New Roman,serif" font-size="14.00"> B&amp;W: 3</text>
<text text-anchor="middle" x="234" y="-23.8" font-family="Times New Roman,serif" font-size="14.00">Pasos en espera: 12</text>
</g>
<!-- Nodo355790875&#45;&gt;Nodo2028017635 -->
<g id="edge3" class="edge">
<title>Nodo355790875&#45;&gt;Nodo2028017635</title>
<path fill="none" stroke="black" d="M234,-134.91C234,-126.65 234,-117.86 234,-109.3"/>
<polygon fill="black" stroke="black" points="237.5,-109.02 234,-99.02 230.5,-109.02 237.5,-109.02"/>
</g>
</g>
</svg>
