<?xml version="1.0" encoding="UTF-8" standalone="no"?>
<!DOCTYPE svg PUBLIC "-//W3C//DTD SVG 1.1//EN"
 "http://www.w3.org/Graphics/SVG/1.1/DTD/svg11.dtd">
<!-- Generated by graphviz version 2.46.0 (20210118.1747)
 -->
<!-- Title: G Pages: 1 -->
<svg width="552pt" height="503pt"
 viewBox="0.00 0.00 552.00 503.00" xmlns="http://www.w3.org/2000/svg" xmlns:xlink="http://www.w3.org/1999/xlink">
<g id="graph0" class="graph" transform="scale(1 1) rotate(0) translate(4 499)">
<title>G</title>
<polygon fill="white" stroke="transparent" points="-4,4 -4,-499 548,-499 548,4 -4,4"/>
<g id="clust1" class="cluster">
<title>cluster_ClientesTOP</title>
<polygon fill="#c1ffc1" stroke="black" points="8,-8 8,-487 536,-487 536,-8 8,-8"/>
<text text-anchor="middle" x="272" y="-471.8" font-family="Times New Roman,serif" font-size="14.00">TOP 5 CLIENTES CON MENOR CANTIDAD DE IMAGENES EN BlANCO Y NEGRO</text>
</g>
<!-- Nodo2081191879 -->
<g id="node1" class="node">
<title>Nodo2081191879</title>
<polygon fill="none" stroke="black" points="332,-456 329,-460 308,-460 305,-456 212,-456 212,-373 332,-373 332,-456"/>
<text text-anchor="middle" x="272" y="-440.8" font-family="Times New Roman,serif" font-size="14.00">Cliente 2</text>
<text text-anchor="middle" x="272" y="-425.8" font-family="Times New Roman,serif" font-size="14.00">Juan Perez </text>
<text text-anchor="middle" x="272" y="-410.8" font-family="Times New Roman,serif" font-size="14.00"> Color: 3</text>
<text text-anchor="middle" x="272" y="-395.8" font-family="Times New Roman,serif" font-size="14.00"> B&amp;W: 0</text>
<text text-anchor="middle" x="272" y="-380.8" font-family="Times New Roman,serif" font-size="14.00">Pasos en espera: 6</text>
</g>
<!-- Nodo2061347276 -->
<g id="node2" class="node">
<title>Nodo2061347276</title>
<polygon fill="none" stroke="black" points="335.5,-337 332.5,-341 311.5,-341 308.5,-337 208.5,-337 208.5,-254 335.5,-254 335.5,-337"/>
<text text-anchor="middle" x="272" y="-321.8" font-family="Times New Roman,serif" font-size="14.00">Cliente 3</text>
<text text-anchor="middle" x="272" y="-306.8" font-family="Times New Roman,serif" font-size="14.00">Luiz Higueros </text>
<text text-anchor="middle" x="272" y="-291.8" font-family="Times New Roman,serif" font-size="14.00"> Color: 2</text>
<text text-anchor="middle" x="272" y="-276.8" font-family="Times New Roman,serif" font-size="14.00"> B&amp;W: 1</text>
<text text-anchor="middle" x="272" y="-261.8" font-family="Times New Roman,serif" font-size="14.00">Pasos en espera: 15</text>
</g>
<!-- Nodo2081191879&#45;&gt;Nodo2061347276 -->
<g id="edge1" class="edge">
<title>Nodo2081191879&#45;&gt;Nodo2061347276</title>
<path fill="none" stroke="black" d="M272,-372.91C272,-364.65 272,-355.86 272,-347.3"/>
<polygon fill="black" stroke="black" points="275.5,-347.02 272,-337.02 268.5,-347.02 275.5,-347.02"/>
</g>
<!-- Nodo1559122513 -->
<g id="node3" class="node">
<title>Nodo1559122513</title>
<polygon fill="none" stroke="black" points="335.5,-218 332.5,-222 311.5,-222 308.5,-218 208.5,-218 208.5,-135 335.5,-135 335.5,-218"/>
<text text-anchor="middle" x="272" y="-202.8" font-family="Times New Roman,serif" font-size="14.00">Cliente 1</text>
<text text-anchor="middle" x="272" y="-187.8" font-family="Times New Roman,serif" font-size="14.00">Andres Lopez </text>
<text text-anchor="middle" x="272" y="-172.8" font-family="Times New Roman,serif" font-size="14.00"> Color: 3</text>
<text text-anchor="middle" x="272" y="-157.8" font-family="Times New Roman,serif" font-size="14.00"> B&amp;W: 2</text>
<text text-anchor="middle" x="272" y="-142.8" font-family="Times New Roman,serif" font-size="14.00">Pasos en espera: 11</text>
</g>
<!-- Nodo2061347276&#45;&gt;Nodo1559122513 -->
<g id="edge2" class="edge">
<title>Nodo2061347276&#45;&gt;Nodo1559122513</title>
<path fill="none" stroke="black" d="M272,-253.91C272,-245.65 272,-236.86 272,-228.3"/>
<polygon fill="black" stroke="black" points="275.5,-228.02 272,-218.02 268.5,-228.02 275.5,-228.02"/>
</g>
<!-- Nodo1128096251 -->
<g id="node4" class="node">
<title>Nodo1128096251</title>
<polygon fill="none" stroke="black" points="335.5,-99 332.5,-103 311.5,-103 308.5,-99 208.5,-99 208.5,-16 335.5,-16 335.5,-99"/>
<text text-anchor="middle" x="272" y="-83.8" font-family="Times New Roman,serif" font-size="14.00">Cliente 1415507480</text>
<text text-anchor="middle" x="272" y="-68.8" font-family="Times New Roman,serif" font-size="14.00">Ben 10 Smith </text>
<text text-anchor="middle" x="272" y="-53.8" font-family="Times New Roman,serif" font-size="14.00"> Color: 2</text>
<text text-anchor="middle" x="272" y="-38.8" font-family="Times New Roman,serif" font-size="14.00"> B&amp;W: 3</text>
<text text-anchor="middle" x="272" y="-23.8" font-family="Times New Roman,serif" font-size="14.00">Pasos en espera: 12</text>
</g>
<!-- Nodo1559122513&#45;&gt;Nodo1128096251 -->
<g id="edge3" class="edge">
<title>Nodo1559122513&#45;&gt;Nodo1128096251</title>
<path fill="none" stroke="black" d="M272,-134.91C272,-126.65 272,-117.86 272,-109.3"/>
<polygon fill="black" stroke="black" points="275.5,-109.02 272,-99.02 268.5,-109.02 275.5,-109.02"/>
</g>
</g>
</svg>
