<?xml version="1.0" encoding="UTF-8" standalone="no"?>
<!DOCTYPE svg PUBLIC "-//W3C//DTD SVG 1.1//EN"
 "http://www.w3.org/Graphics/SVG/1.1/DTD/svg11.dtd">
<!-- Generated by graphviz version 2.46.0 (20210118.1747)
 -->
<!-- Title: G Pages: 1 -->
<svg width="552pt" height="622pt"
 viewBox="0.00 0.00 552.00 622.00" xmlns="http://www.w3.org/2000/svg" xmlns:xlink="http://www.w3.org/1999/xlink">
<g id="graph0" class="graph" transform="scale(1 1) rotate(0) translate(4 618)">
<title>G</title>
<polygon fill="white" stroke="transparent" points="-4,4 -4,-618 548,-618 548,4 -4,4"/>
<g id="clust1" class="cluster">
<title>cluster_ClientesTOP</title>
<polygon fill="#c1ffc1" stroke="black" points="8,-8 8,-606 536,-606 536,-8 8,-8"/>
<text text-anchor="middle" x="272" y="-590.8" font-family="Times New Roman,serif" font-size="14.00">TOP 5 CLIENTES CON MENOR CANTIDAD DE IMAGENES EN BlANCO Y NEGRO</text>
</g>
<!-- Nodo1990160809 -->
<g id="node1" class="node">
<title>Nodo1990160809</title>
<polygon fill="none" stroke="black" points="333.5,-575 330.5,-579 309.5,-579 306.5,-575 210.5,-575 210.5,-492 333.5,-492 333.5,-575"/>
<text text-anchor="middle" x="272" y="-559.8" font-family="Times New Roman,serif" font-size="14.00">Cliente 10</text>
<text text-anchor="middle" x="272" y="-544.8" font-family="Times New Roman,serif" font-size="14.00">Shannon Johnston </text>
<text text-anchor="middle" x="272" y="-529.8" font-family="Times New Roman,serif" font-size="14.00"> Color: 0</text>
<text text-anchor="middle" x="272" y="-514.8" font-family="Times New Roman,serif" font-size="14.00"> B&amp;W: 0</text>
<text text-anchor="middle" x="272" y="-499.8" font-family="Times New Roman,serif" font-size="14.00">Pasos en espera: 0</text>
</g>
<!-- Nodo1285524499 -->
<g id="node2" class="node">
<title>Nodo1285524499</title>
<polygon fill="none" stroke="black" points="332,-456 329,-460 308,-460 305,-456 212,-456 212,-373 332,-373 332,-456"/>
<text text-anchor="middle" x="272" y="-440.8" font-family="Times New Roman,serif" font-size="14.00">Cliente 15</text>
<text text-anchor="middle" x="272" y="-425.8" font-family="Times New Roman,serif" font-size="14.00">Elinor Ford </text>
<text text-anchor="middle" x="272" y="-410.8" font-family="Times New Roman,serif" font-size="14.00"> Color: 0</text>
<text text-anchor="middle" x="272" y="-395.8" font-family="Times New Roman,serif" font-size="14.00"> B&amp;W: 0</text>
<text text-anchor="middle" x="272" y="-380.8" font-family="Times New Roman,serif" font-size="14.00">Pasos en espera: 0</text>
</g>
<!-- Nodo1990160809&#45;&gt;Nodo1285524499 -->
<g id="edge1" class="edge">
<title>Nodo1990160809&#45;&gt;Nodo1285524499</title>
<path fill="none" stroke="black" d="M272,-491.91C272,-483.65 272,-474.86 272,-466.3"/>
<polygon fill="black" stroke="black" points="275.5,-466.02 272,-456.02 268.5,-466.02 275.5,-466.02"/>
</g>
<!-- Nodo1524960486 -->
<g id="node3" class="node">
<title>Nodo1524960486</title>
<polygon fill="none" stroke="black" points="332,-337 329,-341 308,-341 305,-337 212,-337 212,-254 332,-254 332,-337"/>
<text text-anchor="middle" x="272" y="-321.8" font-family="Times New Roman,serif" font-size="14.00">Cliente 25</text>
<text text-anchor="middle" x="272" y="-306.8" font-family="Times New Roman,serif" font-size="14.00">Jolene Mccall </text>
<text text-anchor="middle" x="272" y="-291.8" font-family="Times New Roman,serif" font-size="14.00"> Color: 0</text>
<text text-anchor="middle" x="272" y="-276.8" font-family="Times New Roman,serif" font-size="14.00"> B&amp;W: 0</text>
<text text-anchor="middle" x="272" y="-261.8" font-family="Times New Roman,serif" font-size="14.00">Pasos en espera: 0</text>
</g>
<!-- Nodo1285524499&#45;&gt;Nodo1524960486 -->
<g id="edge2" class="edge">
<title>Nodo1285524499&#45;&gt;Nodo1524960486</title>
<path fill="none" stroke="black" d="M272,-372.91C272,-364.65 272,-355.86 272,-347.3"/>
<polygon fill="black" stroke="black" points="275.5,-347.02 272,-337.02 268.5,-347.02 275.5,-347.02"/>
</g>
<!-- Nodo117009527 -->
<g id="node4" class="node">
<title>Nodo117009527</title>
<polygon fill="none" stroke="black" points="332,-218 329,-222 308,-222 305,-218 212,-218 212,-135 332,-135 332,-218"/>
<text text-anchor="middle" x="272" y="-202.8" font-family="Times New Roman,serif" font-size="14.00">Cliente 6</text>
<text text-anchor="middle" x="272" y="-187.8" font-family="Times New Roman,serif" font-size="14.00">Stefanie Wise </text>
<text text-anchor="middle" x="272" y="-172.8" font-family="Times New Roman,serif" font-size="14.00"> Color: 1</text>
<text text-anchor="middle" x="272" y="-157.8" font-family="Times New Roman,serif" font-size="14.00"> B&amp;W: 0</text>
<text text-anchor="middle" x="272" y="-142.8" font-family="Times New Roman,serif" font-size="14.00">Pasos en espera: 9</text>
</g>
<!-- Nodo1524960486&#45;&gt;Nodo117009527 -->
<g id="edge3" class="edge">
<title>Nodo1524960486&#45;&gt;Nodo117009527</title>
<path fill="none" stroke="black" d="M272,-253.91C272,-245.65 272,-236.86 272,-228.3"/>
<polygon fill="black" stroke="black" points="275.5,-228.02 272,-218.02 268.5,-228.02 275.5,-228.02"/>
</g>
<!-- Nodo199640888 -->
<g id="node5" class="node">
<title>Nodo199640888</title>
<polygon fill="none" stroke="black" points="335.5,-99 332.5,-103 311.5,-103 308.5,-99 208.5,-99 208.5,-16 335.5,-16 335.5,-99"/>
<text text-anchor="middle" x="272" y="-83.8" font-family="Times New Roman,serif" font-size="14.00">Cliente 12</text>
<text text-anchor="middle" x="272" y="-68.8" font-family="Times New Roman,serif" font-size="14.00">Alyce Alford </text>
<text text-anchor="middle" x="272" y="-53.8" font-family="Times New Roman,serif" font-size="14.00"> Color: 3</text>
<text text-anchor="middle" x="272" y="-38.8" font-family="Times New Roman,serif" font-size="14.00"> B&amp;W: 0</text>
<text text-anchor="middle" x="272" y="-23.8" font-family="Times New Roman,serif" font-size="14.00">Pasos en espera: 18</text>
</g>
<!-- Nodo117009527&#45;&gt;Nodo199640888 -->
<g id="edge4" class="edge">
<title>Nodo117009527&#45;&gt;Nodo199640888</title>
<path fill="none" stroke="black" d="M272,-134.91C272,-126.65 272,-117.86 272,-109.3"/>
<polygon fill="black" stroke="black" points="275.5,-109.02 272,-99.02 268.5,-109.02 275.5,-109.02"/>
</g>
</g>
</svg>
