<?xml version="1.0" encoding="UTF-8" standalone="no"?>
<!DOCTYPE svg PUBLIC "-//W3C//DTD SVG 1.1//EN"
 "http://www.w3.org/Graphics/SVG/1.1/DTD/svg11.dtd">
<!-- Generated by graphviz version 2.46.0 (20210118.1747)
 -->
<!-- Title: G Pages: 1 -->
<svg width="476pt" height="622pt"
 viewBox="0.00 0.00 476.00 622.00" xmlns="http://www.w3.org/2000/svg" xmlns:xlink="http://www.w3.org/1999/xlink">
<g id="graph0" class="graph" transform="scale(1 1) rotate(0) translate(4 618)">
<title>G</title>
<polygon fill="white" stroke="transparent" points="-4,4 -4,-618 472,-618 472,4 -4,4"/>
<g id="clust1" class="cluster">
<title>cluster_ClientesTOP</title>
<polygon fill="#c1ffc1" stroke="black" points="8,-8 8,-606 460,-606 460,-8 8,-8"/>
<text text-anchor="middle" x="234" y="-590.8" font-family="Times New Roman,serif" font-size="14.00">TOP 5 CLIENTES CON MAYOR CANTIDAD DE IMAGENES A COLOR</text>
</g>
<!-- Nodo293907205 -->
<g id="node1" class="node">
<title>Nodo293907205</title>
<polygon fill="none" stroke="black" points="294,-575 291,-579 270,-579 267,-575 174,-575 174,-492 294,-492 294,-575"/>
<text text-anchor="middle" x="234" y="-559.8" font-family="Times New Roman,serif" font-size="14.00">Cliente 1</text>
<text text-anchor="middle" x="234" y="-544.8" font-family="Times New Roman,serif" font-size="14.00">Polly Rodriguez </text>
<text text-anchor="middle" x="234" y="-529.8" font-family="Times New Roman,serif" font-size="14.00"> Color: 3</text>
<text text-anchor="middle" x="234" y="-514.8" font-family="Times New Roman,serif" font-size="14.00"> B&amp;W: 2</text>
<text text-anchor="middle" x="234" y="-499.8" font-family="Times New Roman,serif" font-size="14.00">Pasos en espera: 6</text>
</g>
<!-- Nodo1989184704 -->
<g id="node2" class="node">
<title>Nodo1989184704</title>
<polygon fill="none" stroke="black" points="297.5,-456 294.5,-460 273.5,-460 270.5,-456 170.5,-456 170.5,-373 297.5,-373 297.5,-456"/>
<text text-anchor="middle" x="234" y="-440.8" font-family="Times New Roman,serif" font-size="14.00">Cliente 12</text>
<text text-anchor="middle" x="234" y="-425.8" font-family="Times New Roman,serif" font-size="14.00">Alyce Alford </text>
<text text-anchor="middle" x="234" y="-410.8" font-family="Times New Roman,serif" font-size="14.00"> Color: 3</text>
<text text-anchor="middle" x="234" y="-395.8" font-family="Times New Roman,serif" font-size="14.00"> B&amp;W: 0</text>
<text text-anchor="middle" x="234" y="-380.8" font-family="Times New Roman,serif" font-size="14.00">Pasos en espera: 18</text>
</g>
<!-- Nodo293907205&#45;&gt;Nodo1989184704 -->
<g id="edge1" class="edge">
<title>Nodo293907205&#45;&gt;Nodo1989184704</title>
<path fill="none" stroke="black" d="M234,-491.91C234,-483.65 234,-474.86 234,-466.3"/>
<polygon fill="black" stroke="black" points="237.5,-466.02 234,-456.02 230.5,-466.02 237.5,-466.02"/>
</g>
<!-- Nodo611572016 -->
<g id="node3" class="node">
<title>Nodo611572016</title>
<polygon fill="none" stroke="black" points="294,-337 291,-341 270,-341 267,-337 174,-337 174,-254 294,-254 294,-337"/>
<text text-anchor="middle" x="234" y="-321.8" font-family="Times New Roman,serif" font-size="14.00">Cliente 2</text>
<text text-anchor="middle" x="234" y="-306.8" font-family="Times New Roman,serif" font-size="14.00">Yang Wiggins </text>
<text text-anchor="middle" x="234" y="-291.8" font-family="Times New Roman,serif" font-size="14.00"> Color: 1</text>
<text text-anchor="middle" x="234" y="-276.8" font-family="Times New Roman,serif" font-size="14.00"> B&amp;W: 4</text>
<text text-anchor="middle" x="234" y="-261.8" font-family="Times New Roman,serif" font-size="14.00">Pasos en espera: 8</text>
</g>
<!-- Nodo1989184704&#45;&gt;Nodo611572016 -->
<g id="edge2" class="edge">
<title>Nodo1989184704&#45;&gt;Nodo611572016</title>
<path fill="none" stroke="black" d="M234,-372.91C234,-364.65 234,-355.86 234,-347.3"/>
<polygon fill="black" stroke="black" points="237.5,-347.02 234,-337.02 230.5,-347.02 237.5,-347.02"/>
</g>
<!-- Nodo889486595 -->
<g id="node4" class="node">
<title>Nodo889486595</title>
<polygon fill="none" stroke="black" points="294,-218 291,-222 270,-222 267,-218 174,-218 174,-135 294,-135 294,-218"/>
<text text-anchor="middle" x="234" y="-202.8" font-family="Times New Roman,serif" font-size="14.00">Cliente 6</text>
<text text-anchor="middle" x="234" y="-187.8" font-family="Times New Roman,serif" font-size="14.00">Stefanie Wise </text>
<text text-anchor="middle" x="234" y="-172.8" font-family="Times New Roman,serif" font-size="14.00"> Color: 1</text>
<text text-anchor="middle" x="234" y="-157.8" font-family="Times New Roman,serif" font-size="14.00"> B&amp;W: 0</text>
<text text-anchor="middle" x="234" y="-142.8" font-family="Times New Roman,serif" font-size="14.00">Pasos en espera: 9</text>
</g>
<!-- Nodo611572016&#45;&gt;Nodo889486595 -->
<g id="edge3" class="edge">
<title>Nodo611572016&#45;&gt;Nodo889486595</title>
<path fill="none" stroke="black" d="M234,-253.91C234,-245.65 234,-236.86 234,-228.3"/>
<polygon fill="black" stroke="black" points="237.5,-228.02 234,-218.02 230.5,-228.02 237.5,-228.02"/>
</g>
<!-- Nodo77269878 -->
<g id="node5" class="node">
<title>Nodo77269878</title>
<polygon fill="none" stroke="black" points="297.5,-99 294.5,-103 273.5,-103 270.5,-99 170.5,-99 170.5,-16 297.5,-16 297.5,-99"/>
<text text-anchor="middle" x="234" y="-83.8" font-family="Times New Roman,serif" font-size="14.00">Cliente 4</text>
<text text-anchor="middle" x="234" y="-68.8" font-family="Times New Roman,serif" font-size="14.00">Faith Hopkins </text>
<text text-anchor="middle" x="234" y="-53.8" font-family="Times New Roman,serif" font-size="14.00"> Color: 1</text>
<text text-anchor="middle" x="234" y="-38.8" font-family="Times New Roman,serif" font-size="14.00"> B&amp;W: 3</text>
<text text-anchor="middle" x="234" y="-23.8" font-family="Times New Roman,serif" font-size="14.00">Pasos en espera: 10</text>
</g>
<!-- Nodo889486595&#45;&gt;Nodo77269878 -->
<g id="edge4" class="edge">
<title>Nodo889486595&#45;&gt;Nodo77269878</title>
<path fill="none" stroke="black" d="M234,-134.91C234,-126.65 234,-117.86 234,-109.3"/>
<polygon fill="black" stroke="black" points="237.5,-109.02 234,-99.02 230.5,-109.02 237.5,-109.02"/>
</g>
</g>
</svg>
